<?xml version="1.0" encoding="UTF-8" standalone="no"?>
<!DOCTYPE svg PUBLIC "-//W3C//DTD SVG 1.1//EN" "http://www.w3.org/Graphics/SVG/1.1/DTD/svg11.dtd">
<svg xmlns="http://www.w3.org/2000/svg" version="1.1" viewBox="0 0 1080 1080">
<g stroke-width="2.00" fill="none" stroke-linecap="butt">
<path stroke="#ffda87" vector-effect="non-scaling-stroke" d="
  M 248.73 679.24
  Q 170.42 517.23 91.38 354.73
  Q 91.34 354.64 90.63 352.84
  Q 89.61 350.29 87.19 350.31
  Q 58.34 350.54 29.49 350.75
  A 0.60 0.60 76.8 0 0 28.96 351.61
  L 205.33 715.61
  Q 206.13 717.25 207.95 717.25
  L 225.70 717.25
  A 0.82 0.82 77.1 0 0 226.44 716.07
  Q 143.98 545.51 61.49 374.97
  Q 60.49 372.91 59.75 370.74
  A 0.76 0.75 78.4 0 1 60.40 369.74
  Q 68.00 369.14 76.29 369.79
  A 1.42 1.42 -10.3 0 1 77.45 370.59
  Q 159.91 540.98 242.14 711.52
  Q 244.09 715.55 246.06 716.69
  Q 249.48 718.66 252.39 717.33
  Q 254.32 716.45 255.92 713.13
  Q 342.13 534.03 428.28 354.90
  Q 428.31 354.84 428.90 353.75
  Q 430.19 351.38 428.19 350.58
  Q 427.36 350.25 425.27 350.25
  Q 378.89 350.25 332.51 350.25
  Q 329.92 350.25 329.50 350.39
  Q 328.07 350.86 327.19 352.69
  Q 283.89 442.21 240.77 531.82
  Q 239.44 534.58 239.29 535.94
  Q 239.04 538.22 240.12 540.41
  Q 244.39 549.09 248.64 557.35
  Q 249.49 559.01 250.31 557.33
  L 339.75 371.44
  Q 340.70 369.47 342.89 369.50
  Q 368.66 369.88 394.32 369.75
  Q 394.37 369.75 396.18 369.64
  Q 399.51 369.43 397.94 372.69
  Q 324.11 525.74 250.11 679.24
  Q 249.42 680.67 248.73 679.24"
/>
<path stroke="#ffda87" vector-effect="non-scaling-stroke" d="
  M 249.90 598.86
  Q 249.33 600.42 248.61 598.92
  Q 189.92 476.94 131.46 355.29
  Q 129.95 352.17 129.49 351.70
  Q 128.04 350.25 125.25 350.25
  Q 117.13 350.25 108.95 350.25
  A 1.26 1.26 77.0 0 0 107.82 352.06
  L 247.64 641.82
  Q 248.85 644.33 250.06 641.83
  L 372.05 389.46
  Q 373.29 386.88 370.47 386.93
  L 352.46 387.23
  A 1.46 1.41 -77.2 0 0 351.21 388.05
  Q 302.87 488.20 254.80 587.31
  Q 251.92 593.24 249.90 598.86"
/>
<path stroke="#969fbc" vector-effect="non-scaling-stroke" d="
  M 432.51 526.02
  A 0.27 0.27 0.0 0 0 432.24 525.75
  L 399.52 525.75
  A 0.27 0.27 0.0 0 0 399.25 526.02
  L 399.25 710.98
  A 0.27 0.27 0.0 0 0 399.52 711.25
  L 432.24 711.25
  A 0.27 0.27 0.0 0 0 432.51 710.98
  L 432.51 526.02"
/>
<path stroke="#969fbc" vector-effect="non-scaling-stroke" d="
  M 578.96 655.72
  Q 578.40 657.20 577.84 655.72
  L 528.48 526.27
  A 0.81 0.80 79.3 0 0 527.73 525.75
  L 492.07 525.81
  A 0.35 0.35 79.1 0 0 491.75 526.29
  L 565.54 710.68
  A 0.90 0.89 -10.4 0 0 566.38 711.25
  L 590.04 711.25
  A 0.81 0.80 10.7 0 0 590.79 710.74
  L 664.25 526.28
  A 0.34 0.33 -78.6 0 0 663.95 525.81
  L 628.74 525.75
  A 0.87 0.86 10.2 0 0 627.93 526.31
  L 578.96 655.72"
/>
<path stroke="#969fbc" vector-effect="non-scaling-stroke" d="
  M 756.81 679.18
  L 756.75 634.33
  A 0.58 0.58 -45.0 0 1 757.33 633.75
  L 839.95 633.75
  A 0.55 0.55 -45.0 0 0 840.50 633.20
  L 840.44 603.56
  A 0.51 0.50 0.0 0 0 839.93 603.06
  L 757.31 603.00
  A 0.56 0.56 -45.0 0 1 756.75 602.44
  L 756.75 556.75
  A 0.50 0.50 -45.0 0 1 757.25 556.25
  L 846.25 556.25
  A 0.50 0.50 45.0 0 0 846.75 555.75
  L 846.69 526.31
  A 0.51 0.50 0.0 0 0 846.18 525.81
  L 724.06 525.75
  A 0.56 0.56 0.0 0 0 723.50 526.31
  L 723.50 710.62
  A 0.57 0.57 0.0 0 0 724.07 711.19
  L 846.24 711.25
  A 0.51 0.51 0.0 0 0 846.75 710.74
  L 846.75 680.62
  A 0.88 0.87 -0.0 0 0 845.87 679.75
  L 757.31 679.69
  A 0.51 0.50 90.0 0 1 756.81 679.18"
/>
<path stroke="#969fbc" vector-effect="non-scaling-stroke" d="
  M 953.56 679.19
  L 953.50 526.57
  A 0.82 0.82 0.0 0 0 952.68 525.75
  L 920.86 525.75
  A 0.67 0.67 0.0 0 0 920.19 526.42
  L 920.31 710.69
  A 0.50 0.49 90.0 0 0 920.80 711.19
  L 1032.19 711.25
  A 0.56 0.56 0.0 0 0 1032.75 710.69
  L 1032.75 680.12
  A 0.37 0.37 90.0 0 0 1032.38 679.75
  L 954.06 679.69
  A 0.50 0.50 45.0 0 1 953.56 679.19"
/>
<path stroke="#808080" vector-effect="non-scaling-stroke" d="
  M 56.88 800.02
  L 59.28 806.34
  A 0.82 0.65 77.4 0 0 59.94 806.87
  L 65.54 806.94
  A 0.41 0.39 79.0 0 0 65.90 806.38
  L 52.92 773.69
  A 1.80 1.79 -3.8 0 0 51.67 772.60
  Q 48.68 771.87 47.58 772.92
  Q 47.56 772.94 46.29 776.01
  Q 40.08 791.08 34.18 806.28
  A 0.42 0.37 -77.9 0 0 34.50 806.84
  L 39.71 806.90
  A 1.65 1.34 -78.3 0 0 41.08 805.78
  L 43.12 800.02
  A 0.74 0.71 9.5 0 1 43.81 799.55
  L 56.18 799.55
  A 0.76 0.71 -9.3 0 1 56.88 800.02"
/>
<path stroke="#808080" vector-effect="non-scaling-stroke" d="
  M 175.04 784.37
  Q 170.16 780.63 165.06 782.56
  Q 160.25 784.38 158.71 789.06
  Q 157.37 793.12 158.03 797.51
  Q 158.54 800.94 160.73 803.64
  Q 162.94 806.36 166.10 807.13
  Q 170.88 808.29 175.23 804.68
  Q 176.21 803.86 175.86 805.09
  Q 175.58 806.12 175.90 806.66
  A 1.10 0.63 -8.1 0 0 176.76 807.00
  L 180.84 807.00
  A 0.66 0.66 0.0 0 0 181.50 806.34
  L 181.50 773.28
  A 0.95 0.88 89.7 0 0 180.61 772.33
  L 175.93 772.37
  A 0.57 0.53 90.0 0 0 175.40 772.94
  L 175.40 784.18
  Q 175.40 784.65 175.04 784.37"
/>
<path stroke="#808080" vector-effect="non-scaling-stroke" d="
  M 302.7175 772.6035
  A 0.36 0.36 0.0 0 0 302.3556 772.2454
  L 296.7757 772.2746
  A 0.36 0.36 0.0 0 0 296.4176 772.6365
  L 296.4425 777.3965
  A 0.36 0.36 0.0 0 0 296.8044 777.7546
  L 302.3843 777.7254
  A 0.36 0.36 0.0 0 0 302.7424 777.3635
  L 302.7175 772.6035"
/>
<path stroke="#808080" vector-effect="non-scaling-stroke" d="
  M 402.34 805.04
  Q 402.05 806.90 403.75 806.97
  Q 405.85 807.05 407.57 806.96
  A 0.72 0.72 -1.7 0 0 408.25 806.24
  L 408.25 772.91
  A 0.66 0.66 0.0 0 0 407.59 772.25
  L 402.74 772.25
  A 0.67 0.65 -0.4 0 0 402.07 772.91
  L 402.21 783.93
  A 0.34 0.33 -76.0 0 1 401.71 784.24
  Q 395.26 780.64 390.53 783.23
  Q 386.32 785.54 385.02 791.23
  Q 384.14 795.06 385.20 798.92
  Q 386.26 802.79 389.14 805.19
  Q 394.83 809.94 402.03 804.86
  Q 402.41 804.59 402.34 805.04"
/>
<path stroke="#808080" vector-effect="non-scaling-stroke" d="
  M 500.05 800.69
  L 500.00 793.05
  A 0.56 0.55 -0.0 0 1 500.56 792.50
  L 514.72 792.50
  A 0.62 0.52 0.9 0 0 515.34 792.00
  L 515.54 787.30
  A 0.62 0.48 1.4 0 0 514.93 786.80
  L 500.52 786.75
  A 0.52 0.51 -0.0 0 1 500.00 786.24
  L 500.00 778.54
  A 0.55 0.54 0.0 0 1 500.55 778.00
  L 516.19 777.94
  A 0.52 0.50 0.0 0 0 516.71 777.44
  L 516.73 772.99
  A 0.75 0.73 0.4 0 0 515.98 772.25
  L 494.31 772.31
  A 0.51 0.50 -90.0 0 0 493.81 772.82
  L 493.81 806.44
  A 0.50 0.50 -45.0 0 0 494.31 806.94
  L 516.24 807.00
  A 0.52 0.51 90.0 0 0 516.75 806.48
  L 516.75 801.79
  A 0.55 0.54 0.0 0 0 516.20 801.25
  L 500.56 801.20
  A 0.52 0.51 0.6 0 1 500.05 800.69"
/>
<path stroke="#808080" vector-effect="non-scaling-stroke" d="
  M 763.34 805.04
  Q 763.05 806.90 764.75 806.97
  Q 766.85 807.05 768.57 806.96
  A 0.72 0.72 -1.7 0 0 769.25 806.24
  L 769.25 772.91
  A 0.66 0.66 0.0 0 0 768.59 772.25
  L 763.71 772.25
  A 0.71 0.70 0.0 0 0 763.00 772.95
  L 763.07 784.16
  Q 763.08 784.67 762.66 784.38
  Q 758.31 781.42 754.10 782.26
  Q 750.08 783.07 747.68 786.97
  Q 745.19 791.03 745.75 796.50
  Q 746.66 805.29 754.19 807.12
  Q 756.58 807.70 758.80 807.05
  Q 761.10 806.38 763.04 804.88
  Q 763.41 804.60 763.34 805.04"
/>
<path stroke="#808080" vector-effect="non-scaling-stroke" d="
  M 795.4786 772.5509
  A 0.29 0.29 0.0 0 0 795.1896 772.2599
  L 789.5496 772.2402
  A 0.29 0.29 0.0 0 0 789.2586 772.5292
  L 789.2414 777.4491
  A 0.29 0.29 0.0 0 0 789.5304 777.7401
  L 795.1704 777.7598
  A 0.29 0.29 0.0 0 0 795.4614 777.4708
  L 795.4786 772.5509"
/>
<path stroke="#808080" vector-effect="non-scaling-stroke" d="
  M 877.4815 772.5491
  A 0.31 0.31 0.0 0 0 877.1704 772.2402
  L 871.5504 772.2598
  A 0.31 0.31 0.0 0 0 871.2415 772.5709
  L 871.2585 777.4509
  A 0.31 0.31 0.0 0 0 871.5696 777.7598
  L 877.1896 777.7402
  A 0.31 0.31 0.0 0 0 877.4985 777.4291
  L 877.4815 772.5491"
/>
<path stroke="#808080" vector-effect="non-scaling-stroke" d="
  M 978.96 788.05
  Q 979.36 796.69 979.25 798.50
  Q 978.72 807.03 986.49 807.27
  Q 988.82 807.35 989.52 807.24
  Q 991.73 806.87 991.37 804.19
  Q 991.29 803.53 991.37 802.81
  Q 991.57 801.16 990.34 801.61
  Q 989.11 802.06 988.96 802.09
  Q 985.47 802.68 985.02 799.70
  Q 985.00 799.59 985.00 795.79
  Q 985.00 791.89 985.00 787.96
  A 0.52 0.49 -0.6 0 1 985.51 787.47
  L 990.56 787.37
  A 0.60 0.56 -0.0 0 0 991.15 786.82
  L 991.17 783.01
  A 0.56 0.51 0.0 0 0 990.61 782.50
  L 985.52 782.50
  A 0.52 0.52 -0.0 0 1 985.00 781.98
  L 985.00 772.71
  Q 985.00 772.18 984.58 772.49
  L 979.71 776.01
  A 1.05 0.98 73.7 0 0 979.30 776.82
  L 979.20 781.93
  A 0.55 0.52 -89.4 0 1 978.68 782.47
  L 975.81 782.48
  A 0.55 0.51 -0.5 0 0 975.26 783.00
  L 975.29 786.94
  A 0.54 0.52 1.1 0 0 975.81 787.46
  L 978.43 787.54
  A 0.55 0.53 0.0 0 1 978.96 788.05"
/>
<path stroke="#808080" vector-effect="non-scaling-stroke" d="
  M 90.74 807.12
  Q 98.27 808.72 102.75 800.94
  A 0.50 0.44 -62.5 0 0 102.58 800.25
  L 98.23 798.39
  A 0.65 0.54 -62.4 0 0 97.50 798.69
  Q 94.70 803.50 90.78 801.51
  Q 88.02 800.11 87.22 796.81
  Q 86.24 792.80 88.78 789.61
  Q 90.59 787.33 93.06 787.48
  Q 96.01 787.64 97.49 790.94
  A 0.58 0.57 -23.7 0 0 98.23 791.22
  L 102.73 789.37
  A 0.49 0.48 -22.7 0 0 103.00 788.73
  Q 100.20 782.37 93.44 782.06
  Q 84.38 781.65 81.73 790.45
  Q 79.84 796.68 82.59 801.42
  Q 85.23 805.95 90.74 807.12"
/>
<path stroke="#808080" vector-effect="non-scaling-stroke" d="
  M 134.65 804.17
  Q 135.36 805.02 135.35 806.18
  A 0.64 0.45 -89.4 0 0 135.80 806.83
  L 139.69 806.83
  A 0.64 0.56 90.0 0 0 140.25 806.19
  Q 140.25 798.88 140.15 792.25
  Q 140.07 786.84 136.47 784.18
  Q 133.31 781.85 128.76 782.09
  Q 123.46 782.37 119.81 786.86
  A 0.53 0.49 -51.7 0 0 119.87 787.60
  L 123.50 790.20
  A 0.58 0.50 -53.2 0 0 124.23 790.04
  Q 126.77 786.76 130.64 787.41
  Q 132.49 787.72 133.34 788.88
  Q 134.24 790.10 134.35 792.07
  A 0.43 0.42 -87.8 0 1 133.87 792.52
  Q 128.49 791.78 123.47 793.19
  Q 121.08 793.87 119.96 795.01
  Q 118.42 796.61 118.50 799.00
  Q 118.81 807.72 127.81 807.31
  Q 131.97 807.13 134.03 804.24
  A 0.42 0.37 -48.2 0 1 134.65 804.17"
/>
<path stroke="#808080" vector-effect="non-scaling-stroke" d="
  M 206.31 796.81
  L 221.91 796.68
  A 0.69 0.68 -87.2 0 0 222.59 796.06
  Q 223.52 786.36 216.32 783.25
  Q 211.33 781.09 206.62 782.96
  Q 201.39 785.03 199.93 791.54
  Q 198.71 796.96 200.81 801.19
  Q 203.64 806.88 210.49 807.39
  Q 216.78 807.86 221.15 803.60
  A 0.63 0.60 -39.6 0 0 221.24 802.81
  Q 220.36 801.55 218.09 800.22
  A 1.03 1.02 -46.9 0 0 216.99 800.26
  Q 213.68 802.58 210.24 801.78
  Q 206.55 800.92 205.89 797.31
  A 0.43 0.42 -5.1 0 1 206.31 796.81"
/>
<path stroke="#808080" vector-effect="non-scaling-stroke" d="
  M 246.71 784.21
  Q 247.09 782.56 245.50 782.54
  Q 243.37 782.50 241.06 782.50
  A 0.56 0.56 0.0 0 0 240.50 783.06
  L 240.50 806.33
  A 0.67 0.67 0.0 0 0 241.17 807.00
  L 245.95 807.00
  A 0.56 0.55 -1.0 0 0 246.51 806.43
  Q 246.38 800.21 246.63 794.46
  Q 246.77 791.18 247.69 789.74
  Q 249.31 787.23 252.77 787.75
  Q 255.46 788.15 255.50 790.74
  L 255.73 806.32
  A 0.69 0.67 89.6 0 0 256.40 807.00
  L 261.09 807.00
  A 0.66 0.66 -0.0 0 0 261.75 806.34
  Q 261.75 800.87 261.75 795.63
  Q 261.75 792.23 262.25 790.93
  Q 263.30 788.18 266.39 787.80
  Q 268.22 787.57 269.40 788.55
  Q 270.76 789.70 270.75 791.75
  Q 270.69 800.61 270.92 806.31
  A 0.59 0.53 89.4 0 0 271.44 806.88
  L 276.35 806.93
  A 0.67 0.63 -89.5 0 0 276.98 806.27
  Q 277.09 800.31 276.94 794.85
  Q 276.75 788.50 275.18 785.95
  Q 272.36 781.33 265.50 782.25
  Q 262.65 782.63 260.06 785.85
  A 0.39 0.38 -44.6 0 1 259.45 785.85
  Q 254.01 778.93 246.96 784.37
  Q 246.60 784.65 246.71 784.21"
/>
<path stroke="#808080" vector-effect="non-scaling-stroke" d="
  M 336.65 804.17
  Q 337.36 805.02 337.35 806.18
  A 0.64 0.45 -89.4 0 0 337.80 806.83
  L 341.69 806.83
  A 0.64 0.56 90.0 0 0 342.25 806.19
  Q 342.25 798.88 342.11 792.25
  Q 341.94 783.97 334.00 782.25
  Q 326.73 780.67 321.81 786.86
  A 0.53 0.47 -52.5 0 0 321.86 787.59
  L 325.50 790.21
  A 0.59 0.50 -53.6 0 0 326.23 790.04
  Q 328.80 786.74 332.73 787.43
  Q 334.46 787.74 335.31 788.81
  Q 336.23 789.98 336.33 791.81
  A 0.48 0.48 88.9 0 1 335.84 792.32
  Q 331.20 792.22 326.99 792.68
  Q 323.48 793.07 321.71 795.49
  Q 320.07 797.73 320.50 800.78
  Q 321.06 804.82 325.19 806.56
  Q 331.68 809.30 336.00 804.20
  A 0.44 0.40 -45.2 0 1 336.65 804.17"
/>
<path stroke="#808080" vector-effect="non-scaling-stroke" d="
  M 433.32 796.81
  L 448.18 796.75
  A 1.61 1.59 -1.5 0 0 449.78 795.08
  Q 449.21 783.27 439.63 782.25
  Q 435.31 781.79 432.14 783.67
  Q 428.58 785.77 427.21 790.19
  Q 425.41 795.99 427.68 800.68
  Q 429.90 805.25 435.03 806.82
  Q 441.68 808.86 447.93 803.93
  Q 449.10 803.00 447.43 801.94
  Q 446.52 801.37 445.97 800.45
  Q 445.02 798.87 443.83 800.04
  Q 442.93 800.92 442.43 801.15
  Q 435.46 804.29 432.97 797.29
  A 0.37 0.36 -9.5 0 1 433.32 796.81"
/>
<path stroke="#808080" vector-effect="non-scaling-stroke" d="
  M 542.28 784.18
  L 542.22 783.06
  A 0.55 0.54 88.3 0 0 541.68 782.54
  L 536.81 782.54
  A 0.52 0.50 90.0 0 0 536.31 783.06
  L 536.43 806.31
  A 0.57 0.50 90.0 0 0 536.93 806.88
  L 541.82 806.89
  A 0.56 0.48 89.4 0 0 542.30 806.32
  Q 541.96 795.61 542.50 792.00
  Q 542.92 789.19 545.36 788.11
  Q 547.52 787.15 549.26 788.12
  Q 551.16 789.19 551.31 792.19
  Q 551.64 798.71 551.48 806.07
  A 0.91 0.91 -89.4 0 0 552.39 807.00
  L 556.98 807.00
  A 0.52 0.52 0.0 0 0 557.50 806.48
  Q 557.50 799.62 557.50 793.25
  Q 557.50 789.39 560.75 788.06
  Q 562.76 787.24 564.38 788.05
  Q 566.34 789.02 566.38 791.75
  Q 566.50 798.88 566.50 806.34
  A 0.66 0.66 0.0 0 0 567.16 807.00
  L 571.85 807.00
  A 0.88 0.87 0.3 0 0 572.73 806.14
  Q 572.84 800.27 572.69 794.84
  Q 572.50 788.51 570.93 785.95
  Q 568.10 781.35 561.25 782.25
  Q 558.73 782.58 555.84 785.64
  A 0.45 0.44 47.1 0 1 555.18 785.61
  Q 549.60 779.08 542.70 784.38
  Q 542.31 784.68 542.28 784.18"
/>
<path stroke="#808080" vector-effect="non-scaling-stroke" d="
  M 598.09 805.38
  Q 598.08 804.56 598.73 805.02
  Q 603.51 808.43 608.56 806.81
  Q 613.66 805.18 615.11 799.08
  Q 616.16 794.64 615.09 790.55
  Q 613.92 786.12 610.65 783.74
  Q 605.92 780.30 599.69 783.61
  Q 599.44 783.74 598.97 784.10
  Q 597.80 785.01 598.14 783.24
  A 0.49 0.42 -83.2 0 0 597.75 782.66
  L 592.69 782.61
  A 0.57 0.49 -89.5 0 0 592.19 783.18
  L 592.31 817.18
  A 0.55 0.49 89.5 0 0 592.81 817.73
  L 597.57 817.62
  A 0.56 0.54 89.5 0 0 598.10 817.06
  L 598.09 805.38"
/>
<path stroke="#808080" vector-effect="non-scaling-stroke" d="
  M 639.56 786.10
  L 639.56 783.02
  A 0.52 0.52 0.0 0 0 639.04 782.50
  L 634.54 782.50
  A 0.79 0.78 0.0 0 0 633.75 783.28
  L 633.81 806.18
  A 0.64 0.61 -84.5 0 0 634.30 806.80
  Q 636.65 807.31 639.01 806.86
  A 0.60 0.60 -6.6 0 0 639.49 806.26
  Q 639.35 799.12 639.75 794.25
  Q 640.16 789.21 645.00 787.75
  Q 645.80 787.51 647.31 788.26
  A 0.62 0.47 27.7 0 0 648.07 788.13
  L 650.30 784.03
  A 0.60 0.49 28.0 0 0 650.00 783.32
  Q 643.64 779.92 639.93 786.20
  Q 639.57 786.82 639.56 786.10"
/>
<path stroke="#808080" vector-effect="non-scaling-stroke" d="
  M 671.56 796.81
  L 687.55 796.56
  A 0.26 0.26 -87.6 0 0 687.81 796.32
  Q 688.76 786.42 681.57 783.26
  Q 676.60 781.08 671.87 782.96
  Q 666.64 785.03 665.17 791.54
  Q 663.98 796.79 666.00 801.00
  Q 668.89 807.01 675.99 807.45
  Q 682.08 807.82 686.53 803.60
  A 0.65 0.60 -46.6 0 0 686.54 802.67
  L 683.33 799.89
  A 0.64 0.61 -44.1 0 0 682.52 799.90
  Q 679.55 802.41 676.07 801.88
  Q 671.92 801.23 671.15 797.31
  A 0.42 0.42 -6.2 0 1 671.56 796.81"
/>
<path stroke="#808080" vector-effect="non-scaling-stroke" d="
  M 712.12 784.68
  Q 711.79 784.25 711.97 783.62
  A 0.88 0.88 -82.2 0 0 711.12 782.50
  L 706.72 782.50
  A 0.52 0.51 0.0 0 0 706.20 783.01
  L 706.18 806.31
  A 0.56 0.51 -89.5 0 0 706.68 806.87
  L 711.44 806.98
  A 0.55 0.50 -88.9 0 0 711.95 806.44
  Q 712.05 799.97 712.03 793.50
  Q 712.01 789.94 714.38 788.42
  Q 716.68 786.94 719.24 787.94
  Q 722.10 789.05 722.16 793.00
  Q 722.25 799.62 722.25 806.48
  A 0.52 0.52 0.0 0 0 722.77 807.00
  L 727.71 807.00
  A 0.53 0.53 -89.4 0 0 728.24 806.48
  Q 728.37 798.50 728.07 791.25
  Q 727.80 784.61 722.44 782.56
  Q 717.24 780.58 712.86 784.66
  A 0.56 0.45 -40.7 0 1 712.12 784.68"
/>
<path stroke="#808080" vector-effect="non-scaling-stroke" d="
  M 829.41 789.00
  Q 830.50 791.29 830.50 795.00
  Q 830.50 800.63 830.50 806.48
  A 0.52 0.52 0.0 0 0 831.02 807.00
  L 835.95 807.00
  A 0.57 0.57 89.5 0 0 836.52 806.42
  Q 836.34 799.24 836.69 792.63
  Q 836.76 791.30 837.22 790.47
  Q 837.79 789.44 838.68 788.70
  Q 839.96 787.63 841.72 787.72
  Q 845.66 787.92 845.50 792.75
  Q 845.31 798.40 845.66 806.32
  A 0.59 0.52 88.3 0 0 846.18 806.88
  L 851.07 806.89
  A 0.60 0.52 -88.3 0 0 851.59 806.32
  Q 852.28 794.58 851.44 789.81
  Q 850.32 783.48 844.75 782.25
  Q 838.88 780.95 834.75 785.80
  A 0.37 0.37 -42.9 0 1 834.16 785.78
  Q 829.90 779.82 823.24 783.33
  Q 822.85 783.53 822.49 783.95
  Q 820.89 785.79 821.34 783.31
  A 0.53 0.43 -83.9 0 0 820.94 782.70
  L 815.83 782.62
  A 0.64 0.57 -89.6 0 0 815.25 783.26
  L 815.31 806.18
  A 0.64 0.61 -84.5 0 0 815.80 806.80
  Q 818.38 807.36 820.96 806.80
  A 0.58 0.56 82.0 0 0 821.40 806.19
  Q 820.95 800.22 821.43 794.27
  Q 821.71 790.89 822.82 789.36
  Q 824.84 786.59 828.74 788.35
  A 1.40 1.33 0.8 0 1 829.41 789.00"
/>
<path stroke="#808080" vector-effect="non-scaling-stroke" d="
  M 902.06 796.81
  L 916.75 796.75
  Q 918.67 796.74 918.54 794.85
  Q 917.75 782.99 908.01 782.19
  Q 903.81 781.84 900.78 783.70
  Q 897.37 785.78 895.99 790.00
  Q 893.97 796.14 896.77 801.34
  Q 898.23 804.06 900.49 805.49
  Q 902.86 806.99 906.00 807.25
  Q 912.52 807.80 916.90 803.60
  A 0.62 0.61 -39.1 0 0 916.99 802.82
  Q 916.51 802.09 915.83 801.51
  Q 915.69 801.39 914.49 800.17
  Q 913.52 799.19 912.43 800.13
  Q 911.42 801.01 910.97 801.20
  Q 904.08 804.17 901.72 797.30
  A 0.37 0.36 80.3 0 1 902.06 796.81"
/>
<path stroke="#808080" vector-effect="non-scaling-stroke" d="
  M 942.54 784.44
  L 942.46 783.06
  A 0.54 0.53 88.9 0 0 941.93 782.54
  L 937.06 782.54
  A 0.53 0.50 -90.0 0 0 936.56 783.07
  Q 936.46 793.74 936.50 804.42
  Q 936.50 804.51 936.41 805.57
  Q 936.25 807.49 938.51 807.00
  Q 939.50 806.78 940.49 807.00
  Q 943.06 807.56 942.50 805.00
  Q 942.09 803.11 942.61 793.92
  Q 942.79 790.65 943.81 789.33
  Q 945.52 787.13 949.03 787.85
  Q 952.33 788.53 952.50 791.25
  Q 952.92 798.24 952.73 806.16
  A 0.75 0.69 -89.2 0 0 953.42 806.93
  L 958.07 806.88
  A 0.58 0.50 -89.4 0 0 958.57 806.31
  Q 958.61 799.62 958.40 792.94
  Q 958.23 787.65 956.66 785.43
  Q 954.14 781.84 948.75 782.00
  Q 946.22 782.07 942.96 784.62
  Q 942.56 784.93 942.54 784.44"
/>
<path stroke="#808080" vector-effect="non-scaling-stroke" d="
  M 1032.47 794.71
  A 12.65 12.65 0.0 0 0 1019.82 782.06
  A 12.65 12.65 0.0 0 0 1007.17 794.71
  A 12.65 12.65 0.0 0 0 1019.82 807.36
  A 12.65 12.65 0.0 0 0 1032.47 794.71"
/>
<path stroke="#808080" vector-effect="non-scaling-stroke" d="
  M 302.50 782.92
  A 0.43 0.43 0.0 0 0 302.07 782.49
  L 296.93 782.49
  A 0.43 0.43 0.0 0 0 296.50 782.92
  L 296.50 806.56
  A 0.43 0.43 0.0 0 0 296.93 806.99
  L 302.07 806.99
  A 0.43 0.43 0.0 0 0 302.50 806.56
  L 302.50 782.92"
/>
<path stroke="#808080" vector-effect="non-scaling-stroke" d="
  M 795.25 782.92
  A 0.43 0.43 0.0 0 0 794.82 782.49
  L 789.68 782.49
  A 0.43 0.43 0.0 0 0 789.25 782.92
  L 789.25 806.56
  A 0.43 0.43 0.0 0 0 789.68 806.99
  L 794.82 806.99
  A 0.43 0.43 0.0 0 0 795.25 806.56
  L 795.25 782.92"
/>
<path stroke="#808080" vector-effect="non-scaling-stroke" d="
  M 877.25 782.81
  A 0.31 0.31 0.0 0 0 876.94 782.50
  L 871.56 782.50
  A 0.31 0.31 0.0 0 0 871.25 782.81
  L 871.25 806.69
  A 0.31 0.31 0.0 0 0 871.56 807.00
  L 876.94 807.00
  A 0.31 0.31 0.0 0 0 877.25 806.69
  L 877.25 782.81"
/>
<path stroke="#808080" vector-effect="non-scaling-stroke" d="
  M 54.06 794.09
  A 0.40 0.38 -9.7 0 0 54.44 793.58
  L 50.18 782.22
  Q 50.00 781.72 49.82 782.21
  L 45.72 793.72
  A 0.35 0.32 9.3 0 0 46.06 794.15
  L 54.06 794.09"
/>
<path stroke="#808080" vector-effect="non-scaling-stroke" d="
  M 169.8312 802.1199
  A 7.41 5.98 90.3 0 0 175.8499 794.7413
  A 7.41 5.98 90.3 0 0 169.9088 787.3001
  A 7.41 5.98 90.3 0 0 163.8901 794.6787
  A 7.41 5.98 90.3 0 0 169.8312 802.1199"
/>
<path stroke="#808080" vector-effect="non-scaling-stroke" d="
  M 396.6617 802.1198
  A 7.41 5.98 89.6 0 0 402.5899 794.6683
  A 7.41 5.98 89.6 0 0 396.5583 787.3002
  A 7.41 5.98 89.6 0 0 390.6301 794.7517
  A 7.41 5.98 89.6 0 0 396.6617 802.1198"
/>
<path stroke="#808080" vector-effect="non-scaling-stroke" d="
  M 757.6200 802.1200
  A 7.41 5.99 90.0 0 0 763.6100 794.7100
  A 7.41 5.99 90.0 0 0 757.6200 787.3000
  A 7.41 5.99 90.0 0 0 751.6300 794.7100
  A 7.41 5.99 90.0 0 0 757.6200 802.1200"
/>
<path stroke="#808080" vector-effect="non-scaling-stroke" d="
  M 127.33 802.08
  Q 132.59 802.78 134.29 797.54
  A 0.46 0.46 15.4 0 0 133.95 796.95
  Q 130.22 796.18 126.61 797.22
  Q 125.40 797.57 124.89 798.46
  Q 124.13 799.76 124.90 800.85
  Q 125.61 801.86 127.33 802.08"
/>
<path stroke="#808080" vector-effect="non-scaling-stroke" d="
  M 216.17 792.31
  A 0.41 0.40 -3.1 0 0 216.58 791.87
  Q 216.32 789.41 214.72 788.15
  Q 213.28 787.02 211.07 787.09
  Q 207.04 787.23 205.91 791.80
  A 0.37 0.36 6.8 0 0 206.27 792.25
  L 216.17 792.31"
/>
<path stroke="#808080" vector-effect="non-scaling-stroke" d="
  M 329.50 802.13
  Q 334.39 802.72 336.38 797.41
  A 0.44 0.44 11.8 0 0 335.99 796.82
  Q 332.60 796.59 329.88 796.88
  Q 328.34 797.05 327.45 797.77
  Q 325.85 799.07 326.87 800.64
  Q 327.69 801.91 329.50 802.13"
/>
<path stroke="#808080" vector-effect="non-scaling-stroke" d="
  M 443.17 792.31
  A 0.41 0.40 -3.1 0 0 443.58 791.87
  Q 443.19 788.10 439.72 787.40
  Q 434.34 786.32 432.91 791.84
  A 0.40 0.39 6.8 0 0 433.30 792.32
  L 443.17 792.31"
/>
<path stroke="#808080" vector-effect="non-scaling-stroke" d="
  M 603.6658 802.0400
  A 7.38 6.00 89.8 0 0 609.6400 794.6391
  A 7.38 6.00 89.8 0 0 603.6142 787.2800
  A 7.38 6.00 89.8 0 0 597.6400 794.6809
  A 7.38 6.00 89.8 0 0 603.6658 802.0400"
/>
<path stroke="#808080" vector-effect="non-scaling-stroke" d="
  M 681.44 792.31
  A 0.43 0.42 -5.0 0 0 681.87 791.81
  Q 681.48 789.39 679.95 788.16
  Q 678.55 787.02 676.31 787.10
  Q 672.21 787.25 671.07 791.80
  A 0.36 0.36 7.4 0 0 671.42 792.25
  L 681.44 792.31"
/>
<path stroke="#808080" vector-effect="non-scaling-stroke" d="
  M 912.10 792.33
  A 0.35 0.35 -4.2 0 0 912.45 791.93
  Q 911.66 787.06 907.22 787.10
  Q 905.06 787.12 903.64 788.23
  Q 901.99 789.51 901.73 791.80
  A 0.45 0.45 3.4 0 0 902.18 792.30
  L 912.10 792.33"
/>
<path stroke="#808080" vector-effect="non-scaling-stroke" d="
  M 1019.8970 802.3997
  A 7.68 6.33 89.5 0 0 1026.1598 794.6648
  A 7.68 6.33 89.5 0 0 1019.7630 787.0403
  A 7.68 6.33 89.5 0 0 1013.5002 794.7752
  A 7.68 6.33 89.5 0 0 1019.8970 802.3997"
/>
</g>
<path fill="#ffffff" d="
  M 0.00 0.00
  L 1080.00 0.00
  L 1080.00 1080.00
  L 0.00 1080.00
  L 0.00 0.00
  Z
  M 248.73 679.24
  Q 170.42 517.23 91.38 354.73
  Q 91.34 354.64 90.63 352.84
  Q 89.61 350.29 87.19 350.31
  Q 58.34 350.54 29.49 350.75
  A 0.60 0.60 76.8 0 0 28.96 351.61
  L 205.33 715.61
  Q 206.13 717.25 207.95 717.25
  L 225.70 717.25
  A 0.82 0.82 77.1 0 0 226.44 716.07
  Q 143.98 545.51 61.49 374.97
  Q 60.49 372.91 59.75 370.74
  A 0.76 0.75 78.4 0 1 60.40 369.74
  Q 68.00 369.14 76.29 369.79
  A 1.42 1.42 -10.3 0 1 77.45 370.59
  Q 159.91 540.98 242.14 711.52
  Q 244.09 715.55 246.06 716.69
  Q 249.48 718.66 252.39 717.33
  Q 254.32 716.45 255.92 713.13
  Q 342.13 534.03 428.28 354.90
  Q 428.31 354.84 428.90 353.75
  Q 430.19 351.38 428.19 350.58
  Q 427.36 350.25 425.27 350.25
  Q 378.89 350.25 332.51 350.25
  Q 329.92 350.25 329.50 350.39
  Q 328.07 350.86 327.19 352.69
  Q 283.89 442.21 240.77 531.82
  Q 239.44 534.58 239.29 535.94
  Q 239.04 538.22 240.12 540.41
  Q 244.39 549.09 248.64 557.35
  Q 249.49 559.01 250.31 557.33
  L 339.75 371.44
  Q 340.70 369.47 342.89 369.50
  Q 368.66 369.88 394.32 369.75
  Q 394.37 369.75 396.18 369.64
  Q 399.51 369.43 397.94 372.69
  Q 324.11 525.74 250.11 679.24
  Q 249.42 680.67 248.73 679.24
  Z
  M 249.90 598.86
  Q 249.33 600.42 248.61 598.92
  Q 189.92 476.94 131.46 355.29
  Q 129.95 352.17 129.49 351.70
  Q 128.04 350.25 125.25 350.25
  Q 117.13 350.25 108.95 350.25
  A 1.26 1.26 77.0 0 0 107.82 352.06
  L 247.64 641.82
  Q 248.85 644.33 250.06 641.83
  L 372.05 389.46
  Q 373.29 386.88 370.47 386.93
  L 352.46 387.23
  A 1.46 1.41 -77.2 0 0 351.21 388.05
  Q 302.87 488.20 254.80 587.31
  Q 251.92 593.24 249.90 598.86
  Z
  M 432.51 526.02
  A 0.27 0.27 0.0 0 0 432.24 525.75
  L 399.52 525.75
  A 0.27 0.27 0.0 0 0 399.25 526.02
  L 399.25 710.98
  A 0.27 0.27 0.0 0 0 399.52 711.25
  L 432.24 711.25
  A 0.27 0.27 0.0 0 0 432.51 710.98
  L 432.51 526.02
  Z
  M 578.96 655.72
  Q 578.40 657.20 577.84 655.72
  L 528.48 526.27
  A 0.81 0.80 79.3 0 0 527.73 525.75
  L 492.07 525.81
  A 0.35 0.35 79.1 0 0 491.75 526.29
  L 565.54 710.68
  A 0.90 0.89 -10.4 0 0 566.38 711.25
  L 590.04 711.25
  A 0.81 0.80 10.7 0 0 590.79 710.74
  L 664.25 526.28
  A 0.34 0.33 -78.6 0 0 663.95 525.81
  L 628.74 525.75
  A 0.87 0.86 10.2 0 0 627.93 526.31
  L 578.96 655.72
  Z
  M 756.81 679.18
  L 756.75 634.33
  A 0.58 0.58 -45.0 0 1 757.33 633.75
  L 839.95 633.75
  A 0.55 0.55 -45.0 0 0 840.50 633.20
  L 840.44 603.56
  A 0.51 0.50 0.0 0 0 839.93 603.06
  L 757.31 603.00
  A 0.56 0.56 -45.0 0 1 756.75 602.44
  L 756.75 556.75
  A 0.50 0.50 -45.0 0 1 757.25 556.25
  L 846.25 556.25
  A 0.50 0.50 45.0 0 0 846.75 555.75
  L 846.69 526.31
  A 0.51 0.50 0.0 0 0 846.18 525.81
  L 724.06 525.75
  A 0.56 0.56 0.0 0 0 723.50 526.31
  L 723.50 710.62
  A 0.57 0.57 0.0 0 0 724.07 711.19
  L 846.24 711.25
  A 0.51 0.51 0.0 0 0 846.75 710.74
  L 846.75 680.62
  A 0.88 0.87 -0.0 0 0 845.87 679.75
  L 757.31 679.69
  A 0.51 0.50 90.0 0 1 756.81 679.18
  Z
  M 953.56 679.19
  L 953.50 526.57
  A 0.82 0.82 0.0 0 0 952.68 525.75
  L 920.86 525.75
  A 0.67 0.67 0.0 0 0 920.19 526.42
  L 920.31 710.69
  A 0.50 0.49 90.0 0 0 920.80 711.19
  L 1032.19 711.25
  A 0.56 0.56 0.0 0 0 1032.75 710.69
  L 1032.75 680.12
  A 0.37 0.37 90.0 0 0 1032.38 679.75
  L 954.06 679.69
  A 0.50 0.50 45.0 0 1 953.56 679.19
  Z
  M 56.88 800.02
  L 59.28 806.34
  A 0.82 0.65 77.4 0 0 59.94 806.87
  L 65.54 806.94
  A 0.41 0.39 79.0 0 0 65.90 806.38
  L 52.92 773.69
  A 1.80 1.79 -3.8 0 0 51.67 772.60
  Q 48.68 771.87 47.58 772.92
  Q 47.56 772.94 46.29 776.01
  Q 40.08 791.08 34.18 806.28
  A 0.42 0.37 -77.9 0 0 34.50 806.84
  L 39.71 806.90
  A 1.65 1.34 -78.3 0 0 41.08 805.78
  L 43.12 800.02
  A 0.74 0.71 9.5 0 1 43.81 799.55
  L 56.18 799.55
  A 0.76 0.71 -9.3 0 1 56.88 800.02
  Z
  M 175.04 784.37
  Q 170.16 780.63 165.06 782.56
  Q 160.25 784.38 158.71 789.06
  Q 157.37 793.12 158.03 797.51
  Q 158.54 800.94 160.73 803.64
  Q 162.94 806.36 166.10 807.13
  Q 170.88 808.29 175.23 804.68
  Q 176.21 803.86 175.86 805.09
  Q 175.58 806.12 175.90 806.66
  A 1.10 0.63 -8.1 0 0 176.76 807.00
  L 180.84 807.00
  A 0.66 0.66 0.0 0 0 181.50 806.34
  L 181.50 773.28
  A 0.95 0.88 89.7 0 0 180.61 772.33
  L 175.93 772.37
  A 0.57 0.53 90.0 0 0 175.40 772.94
  L 175.40 784.18
  Q 175.40 784.65 175.04 784.37
  Z
  M 302.7175 772.6035
  A 0.36 0.36 0.0 0 0 302.3556 772.2454
  L 296.7757 772.2746
  A 0.36 0.36 0.0 0 0 296.4176 772.6365
  L 296.4425 777.3965
  A 0.36 0.36 0.0 0 0 296.8044 777.7546
  L 302.3843 777.7254
  A 0.36 0.36 0.0 0 0 302.7424 777.3635
  L 302.7175 772.6035
  Z
  M 402.34 805.04
  Q 402.05 806.90 403.75 806.97
  Q 405.85 807.05 407.57 806.96
  A 0.72 0.72 -1.7 0 0 408.25 806.24
  L 408.25 772.91
  A 0.66 0.66 0.0 0 0 407.59 772.25
  L 402.74 772.25
  A 0.67 0.65 -0.4 0 0 402.07 772.91
  L 402.21 783.93
  A 0.34 0.33 -76.0 0 1 401.71 784.24
  Q 395.26 780.64 390.53 783.23
  Q 386.32 785.54 385.02 791.23
  Q 384.14 795.06 385.20 798.92
  Q 386.26 802.79 389.14 805.19
  Q 394.83 809.94 402.03 804.86
  Q 402.41 804.59 402.34 805.04
  Z
  M 500.05 800.69
  L 500.00 793.05
  A 0.56 0.55 -0.0 0 1 500.56 792.50
  L 514.72 792.50
  A 0.62 0.52 0.9 0 0 515.34 792.00
  L 515.54 787.30
  A 0.62 0.48 1.4 0 0 514.93 786.80
  L 500.52 786.75
  A 0.52 0.51 -0.0 0 1 500.00 786.24
  L 500.00 778.54
  A 0.55 0.54 0.0 0 1 500.55 778.00
  L 516.19 777.94
  A 0.52 0.50 0.0 0 0 516.71 777.44
  L 516.73 772.99
  A 0.75 0.73 0.4 0 0 515.98 772.25
  L 494.31 772.31
  A 0.51 0.50 -90.0 0 0 493.81 772.82
  L 493.81 806.44
  A 0.50 0.50 -45.0 0 0 494.31 806.94
  L 516.24 807.00
  A 0.52 0.51 90.0 0 0 516.75 806.48
  L 516.75 801.79
  A 0.55 0.54 0.0 0 0 516.20 801.25
  L 500.56 801.20
  A 0.52 0.51 0.6 0 1 500.05 800.69
  Z
  M 763.34 805.04
  Q 763.05 806.90 764.75 806.97
  Q 766.85 807.05 768.57 806.96
  A 0.72 0.72 -1.7 0 0 769.25 806.24
  L 769.25 772.91
  A 0.66 0.66 0.0 0 0 768.59 772.25
  L 763.71 772.25
  A 0.71 0.70 0.0 0 0 763.00 772.95
  L 763.07 784.16
  Q 763.08 784.67 762.66 784.38
  Q 758.31 781.42 754.10 782.26
  Q 750.08 783.07 747.68 786.97
  Q 745.19 791.03 745.75 796.50
  Q 746.66 805.29 754.19 807.12
  Q 756.58 807.70 758.80 807.05
  Q 761.10 806.38 763.04 804.88
  Q 763.41 804.60 763.34 805.04
  Z
  M 795.4786 772.5509
  A 0.29 0.29 0.0 0 0 795.1896 772.2599
  L 789.5496 772.2402
  A 0.29 0.29 0.0 0 0 789.2586 772.5292
  L 789.2414 777.4491
  A 0.29 0.29 0.0 0 0 789.5304 777.7401
  L 795.1704 777.7598
  A 0.29 0.29 0.0 0 0 795.4614 777.4708
  L 795.4786 772.5509
  Z
  M 877.4815 772.5491
  A 0.31 0.31 0.0 0 0 877.1704 772.2402
  L 871.5504 772.2598
  A 0.31 0.31 0.0 0 0 871.2415 772.5709
  L 871.2585 777.4509
  A 0.31 0.31 0.0 0 0 871.5696 777.7598
  L 877.1896 777.7402
  A 0.31 0.31 0.0 0 0 877.4985 777.4291
  L 877.4815 772.5491
  Z
  M 978.96 788.05
  Q 979.36 796.69 979.25 798.50
  Q 978.72 807.03 986.49 807.27
  Q 988.82 807.35 989.52 807.24
  Q 991.73 806.87 991.37 804.19
  Q 991.29 803.53 991.37 802.81
  Q 991.57 801.16 990.34 801.61
  Q 989.11 802.06 988.96 802.09
  Q 985.47 802.68 985.02 799.70
  Q 985.00 799.59 985.00 795.79
  Q 985.00 791.89 985.00 787.96
  A 0.52 0.49 -0.6 0 1 985.51 787.47
  L 990.56 787.37
  A 0.60 0.56 -0.0 0 0 991.15 786.82
  L 991.17 783.01
  A 0.56 0.51 0.0 0 0 990.61 782.50
  L 985.52 782.50
  A 0.52 0.52 -0.0 0 1 985.00 781.98
  L 985.00 772.71
  Q 985.00 772.18 984.58 772.49
  L 979.71 776.01
  A 1.05 0.98 73.7 0 0 979.30 776.82
  L 979.20 781.93
  A 0.55 0.52 -89.4 0 1 978.68 782.47
  L 975.81 782.48
  A 0.55 0.51 -0.5 0 0 975.26 783.00
  L 975.29 786.94
  A 0.54 0.52 1.1 0 0 975.81 787.46
  L 978.43 787.54
  A 0.55 0.53 0.0 0 1 978.96 788.05
  Z
  M 90.74 807.12
  Q 98.27 808.72 102.75 800.94
  A 0.50 0.44 -62.5 0 0 102.58 800.25
  L 98.23 798.39
  A 0.65 0.54 -62.4 0 0 97.50 798.69
  Q 94.70 803.50 90.78 801.51
  Q 88.02 800.11 87.22 796.81
  Q 86.24 792.80 88.78 789.61
  Q 90.59 787.33 93.06 787.48
  Q 96.01 787.64 97.49 790.94
  A 0.58 0.57 -23.7 0 0 98.23 791.22
  L 102.73 789.37
  A 0.49 0.48 -22.7 0 0 103.00 788.73
  Q 100.20 782.37 93.44 782.06
  Q 84.38 781.65 81.73 790.45
  Q 79.84 796.68 82.59 801.42
  Q 85.23 805.95 90.74 807.12
  Z
  M 134.65 804.17
  Q 135.36 805.02 135.35 806.18
  A 0.64 0.45 -89.4 0 0 135.80 806.83
  L 139.69 806.83
  A 0.64 0.56 90.0 0 0 140.25 806.19
  Q 140.25 798.88 140.15 792.25
  Q 140.07 786.84 136.47 784.18
  Q 133.31 781.85 128.76 782.09
  Q 123.46 782.37 119.81 786.86
  A 0.53 0.49 -51.7 0 0 119.87 787.60
  L 123.50 790.20
  A 0.58 0.50 -53.2 0 0 124.23 790.04
  Q 126.77 786.76 130.64 787.41
  Q 132.49 787.72 133.34 788.88
  Q 134.24 790.10 134.35 792.07
  A 0.43 0.42 -87.8 0 1 133.87 792.52
  Q 128.49 791.78 123.47 793.19
  Q 121.08 793.87 119.96 795.01
  Q 118.42 796.61 118.50 799.00
  Q 118.81 807.72 127.81 807.31
  Q 131.97 807.13 134.03 804.24
  A 0.42 0.37 -48.2 0 1 134.65 804.17
  Z
  M 206.31 796.81
  L 221.91 796.68
  A 0.69 0.68 -87.2 0 0 222.59 796.06
  Q 223.52 786.36 216.32 783.25
  Q 211.33 781.09 206.62 782.96
  Q 201.39 785.03 199.93 791.54
  Q 198.71 796.96 200.81 801.19
  Q 203.64 806.88 210.49 807.39
  Q 216.78 807.86 221.15 803.60
  A 0.63 0.60 -39.6 0 0 221.24 802.81
  Q 220.36 801.55 218.09 800.22
  A 1.03 1.02 -46.9 0 0 216.99 800.26
  Q 213.68 802.58 210.24 801.78
  Q 206.55 800.92 205.89 797.31
  A 0.43 0.42 -5.1 0 1 206.31 796.81
  Z
  M 246.71 784.21
  Q 247.09 782.56 245.50 782.54
  Q 243.37 782.50 241.06 782.50
  A 0.56 0.56 0.0 0 0 240.50 783.06
  L 240.50 806.33
  A 0.67 0.67 0.0 0 0 241.17 807.00
  L 245.95 807.00
  A 0.56 0.55 -1.0 0 0 246.51 806.43
  Q 246.38 800.21 246.63 794.46
  Q 246.77 791.18 247.69 789.74
  Q 249.31 787.23 252.77 787.75
  Q 255.46 788.15 255.50 790.74
  L 255.73 806.32
  A 0.69 0.67 89.6 0 0 256.40 807.00
  L 261.09 807.00
  A 0.66 0.66 -0.0 0 0 261.75 806.34
  Q 261.75 800.87 261.75 795.63
  Q 261.75 792.23 262.25 790.93
  Q 263.30 788.18 266.39 787.80
  Q 268.22 787.57 269.40 788.55
  Q 270.76 789.70 270.75 791.75
  Q 270.69 800.61 270.92 806.31
  A 0.59 0.53 89.4 0 0 271.44 806.88
  L 276.35 806.93
  A 0.67 0.63 -89.5 0 0 276.98 806.27
  Q 277.09 800.31 276.94 794.85
  Q 276.75 788.50 275.18 785.95
  Q 272.36 781.33 265.50 782.25
  Q 262.65 782.63 260.06 785.85
  A 0.39 0.38 -44.6 0 1 259.45 785.85
  Q 254.01 778.93 246.96 784.37
  Q 246.60 784.65 246.71 784.21
  Z
  M 336.65 804.17
  Q 337.36 805.02 337.35 806.18
  A 0.64 0.45 -89.4 0 0 337.80 806.83
  L 341.69 806.83
  A 0.64 0.56 90.0 0 0 342.25 806.19
  Q 342.25 798.88 342.11 792.25
  Q 341.94 783.97 334.00 782.25
  Q 326.73 780.67 321.81 786.86
  A 0.53 0.47 -52.5 0 0 321.86 787.59
  L 325.50 790.21
  A 0.59 0.50 -53.6 0 0 326.23 790.04
  Q 328.80 786.74 332.73 787.43
  Q 334.46 787.74 335.31 788.81
  Q 336.23 789.98 336.33 791.81
  A 0.48 0.48 88.9 0 1 335.84 792.32
  Q 331.20 792.22 326.99 792.68
  Q 323.48 793.07 321.71 795.49
  Q 320.07 797.73 320.50 800.78
  Q 321.06 804.82 325.19 806.56
  Q 331.68 809.30 336.00 804.20
  A 0.44 0.40 -45.2 0 1 336.65 804.17
  Z
  M 433.32 796.81
  L 448.18 796.75
  A 1.61 1.59 -1.5 0 0 449.78 795.08
  Q 449.21 783.27 439.63 782.25
  Q 435.31 781.79 432.14 783.67
  Q 428.58 785.77 427.21 790.19
  Q 425.41 795.99 427.68 800.68
  Q 429.90 805.25 435.03 806.82
  Q 441.68 808.86 447.93 803.93
  Q 449.10 803.00 447.43 801.94
  Q 446.52 801.37 445.97 800.45
  Q 445.02 798.87 443.83 800.04
  Q 442.93 800.92 442.43 801.15
  Q 435.46 804.29 432.97 797.29
  A 0.37 0.36 -9.5 0 1 433.32 796.81
  Z
  M 542.28 784.18
  L 542.22 783.06
  A 0.55 0.54 88.3 0 0 541.68 782.54
  L 536.81 782.54
  A 0.52 0.50 90.0 0 0 536.31 783.06
  L 536.43 806.31
  A 0.57 0.50 90.0 0 0 536.93 806.88
  L 541.82 806.89
  A 0.56 0.48 89.4 0 0 542.30 806.32
  Q 541.96 795.61 542.50 792.00
  Q 542.92 789.19 545.36 788.11
  Q 547.52 787.15 549.26 788.12
  Q 551.16 789.19 551.31 792.19
  Q 551.64 798.71 551.48 806.07
  A 0.91 0.91 -89.4 0 0 552.39 807.00
  L 556.98 807.00
  A 0.52 0.52 0.0 0 0 557.50 806.48
  Q 557.50 799.62 557.50 793.25
  Q 557.50 789.39 560.75 788.06
  Q 562.76 787.24 564.38 788.05
  Q 566.34 789.02 566.38 791.75
  Q 566.50 798.88 566.50 806.34
  A 0.66 0.66 0.0 0 0 567.16 807.00
  L 571.85 807.00
  A 0.88 0.87 0.3 0 0 572.73 806.14
  Q 572.84 800.27 572.69 794.84
  Q 572.50 788.51 570.93 785.95
  Q 568.10 781.35 561.25 782.25
  Q 558.73 782.58 555.84 785.64
  A 0.45 0.44 47.1 0 1 555.18 785.61
  Q 549.60 779.08 542.70 784.38
  Q 542.31 784.68 542.28 784.18
  Z
  M 598.09 805.38
  Q 598.08 804.56 598.73 805.02
  Q 603.51 808.43 608.56 806.81
  Q 613.66 805.18 615.11 799.08
  Q 616.16 794.64 615.09 790.55
  Q 613.92 786.12 610.65 783.74
  Q 605.92 780.30 599.69 783.61
  Q 599.44 783.74 598.97 784.10
  Q 597.80 785.01 598.14 783.24
  A 0.49 0.42 -83.2 0 0 597.75 782.66
  L 592.69 782.61
  A 0.57 0.49 -89.5 0 0 592.19 783.18
  L 592.31 817.18
  A 0.55 0.49 89.5 0 0 592.81 817.73
  L 597.57 817.62
  A 0.56 0.54 89.5 0 0 598.10 817.06
  L 598.09 805.38
  Z
  M 639.56 786.10
  L 639.56 783.02
  A 0.52 0.52 0.0 0 0 639.04 782.50
  L 634.54 782.50
  A 0.79 0.78 0.0 0 0 633.75 783.28
  L 633.81 806.18
  A 0.64 0.61 -84.5 0 0 634.30 806.80
  Q 636.65 807.31 639.01 806.86
  A 0.60 0.60 -6.6 0 0 639.49 806.26
  Q 639.35 799.12 639.75 794.25
  Q 640.16 789.21 645.00 787.75
  Q 645.80 787.51 647.31 788.26
  A 0.62 0.47 27.7 0 0 648.07 788.13
  L 650.30 784.03
  A 0.60 0.49 28.0 0 0 650.00 783.32
  Q 643.64 779.92 639.93 786.20
  Q 639.57 786.82 639.56 786.10
  Z
  M 671.56 796.81
  L 687.55 796.56
  A 0.26 0.26 -87.6 0 0 687.81 796.32
  Q 688.76 786.42 681.57 783.26
  Q 676.60 781.08 671.87 782.96
  Q 666.64 785.03 665.17 791.54
  Q 663.98 796.79 666.00 801.00
  Q 668.89 807.01 675.99 807.45
  Q 682.08 807.82 686.53 803.60
  A 0.65 0.60 -46.6 0 0 686.54 802.67
  L 683.33 799.89
  A 0.64 0.61 -44.1 0 0 682.52 799.90
  Q 679.55 802.41 676.07 801.88
  Q 671.92 801.23 671.15 797.31
  A 0.42 0.42 -6.2 0 1 671.56 796.81
  Z
  M 712.12 784.68
  Q 711.79 784.25 711.97 783.62
  A 0.88 0.88 -82.2 0 0 711.12 782.50
  L 706.72 782.50
  A 0.52 0.51 0.0 0 0 706.20 783.01
  L 706.18 806.31
  A 0.56 0.51 -89.5 0 0 706.68 806.87
  L 711.44 806.98
  A 0.55 0.50 -88.9 0 0 711.95 806.44
  Q 712.05 799.97 712.03 793.50
  Q 712.01 789.94 714.38 788.42
  Q 716.68 786.94 719.24 787.94
  Q 722.10 789.05 722.16 793.00
  Q 722.25 799.62 722.25 806.48
  A 0.52 0.52 0.0 0 0 722.77 807.00
  L 727.71 807.00
  A 0.53 0.53 -89.4 0 0 728.24 806.48
  Q 728.37 798.50 728.07 791.25
  Q 727.80 784.61 722.44 782.56
  Q 717.24 780.58 712.86 784.66
  A 0.56 0.45 -40.7 0 1 712.12 784.68
  Z
  M 829.41 789.00
  Q 830.50 791.29 830.50 795.00
  Q 830.50 800.63 830.50 806.48
  A 0.52 0.52 0.0 0 0 831.02 807.00
  L 835.95 807.00
  A 0.57 0.57 89.5 0 0 836.52 806.42
  Q 836.34 799.24 836.69 792.63
  Q 836.76 791.30 837.22 790.47
  Q 837.79 789.44 838.68 788.70
  Q 839.96 787.63 841.72 787.72
  Q 845.66 787.92 845.50 792.75
  Q 845.31 798.40 845.66 806.32
  A 0.59 0.52 88.3 0 0 846.18 806.88
  L 851.07 806.89
  A 0.60 0.52 -88.3 0 0 851.59 806.32
  Q 852.28 794.58 851.44 789.81
  Q 850.32 783.48 844.75 782.25
  Q 838.88 780.95 834.75 785.80
  A 0.37 0.37 -42.9 0 1 834.16 785.78
  Q 829.90 779.82 823.24 783.33
  Q 822.85 783.53 822.49 783.95
  Q 820.89 785.79 821.34 783.31
  A 0.53 0.43 -83.9 0 0 820.94 782.70
  L 815.83 782.62
  A 0.64 0.57 -89.6 0 0 815.25 783.26
  L 815.31 806.18
  A 0.64 0.61 -84.5 0 0 815.80 806.80
  Q 818.38 807.36 820.96 806.80
  A 0.58 0.56 82.0 0 0 821.40 806.19
  Q 820.95 800.22 821.43 794.27
  Q 821.71 790.89 822.82 789.36
  Q 824.84 786.59 828.74 788.35
  A 1.40 1.33 0.8 0 1 829.41 789.00
  Z
  M 902.06 796.81
  L 916.75 796.75
  Q 918.67 796.74 918.54 794.85
  Q 917.75 782.99 908.01 782.19
  Q 903.81 781.84 900.78 783.70
  Q 897.37 785.78 895.99 790.00
  Q 893.97 796.14 896.77 801.34
  Q 898.23 804.06 900.49 805.49
  Q 902.86 806.99 906.00 807.25
  Q 912.52 807.80 916.90 803.60
  A 0.62 0.61 -39.1 0 0 916.99 802.82
  Q 916.51 802.09 915.83 801.51
  Q 915.69 801.39 914.49 800.17
  Q 913.52 799.19 912.43 800.13
  Q 911.42 801.01 910.97 801.20
  Q 904.08 804.17 901.72 797.30
  A 0.37 0.36 80.3 0 1 902.06 796.81
  Z
  M 942.54 784.44
  L 942.46 783.06
  A 0.54 0.53 88.9 0 0 941.93 782.54
  L 937.06 782.54
  A 0.53 0.50 -90.0 0 0 936.56 783.07
  Q 936.46 793.74 936.50 804.42
  Q 936.50 804.51 936.41 805.57
  Q 936.25 807.49 938.51 807.00
  Q 939.50 806.78 940.49 807.00
  Q 943.06 807.56 942.50 805.00
  Q 942.09 803.11 942.61 793.92
  Q 942.79 790.65 943.81 789.33
  Q 945.52 787.13 949.03 787.85
  Q 952.33 788.53 952.50 791.25
  Q 952.92 798.24 952.73 806.16
  A 0.75 0.69 -89.2 0 0 953.42 806.93
  L 958.07 806.88
  A 0.58 0.50 -89.4 0 0 958.57 806.31
  Q 958.61 799.62 958.40 792.94
  Q 958.23 787.65 956.66 785.43
  Q 954.14 781.84 948.75 782.00
  Q 946.22 782.07 942.96 784.62
  Q 942.56 784.93 942.54 784.44
  Z
  M 1032.47 794.71
  A 12.65 12.65 0.0 0 0 1019.82 782.06
  A 12.65 12.65 0.0 0 0 1007.17 794.71
  A 12.65 12.65 0.0 0 0 1019.82 807.36
  A 12.65 12.65 0.0 0 0 1032.47 794.71
  Z
  M 302.50 782.92
  A 0.43 0.43 0.0 0 0 302.07 782.49
  L 296.93 782.49
  A 0.43 0.43 0.0 0 0 296.50 782.92
  L 296.50 806.56
  A 0.43 0.43 0.0 0 0 296.93 806.99
  L 302.07 806.99
  A 0.43 0.43 0.0 0 0 302.50 806.56
  L 302.50 782.92
  Z
  M 795.25 782.92
  A 0.43 0.43 0.0 0 0 794.82 782.49
  L 789.68 782.49
  A 0.43 0.43 0.0 0 0 789.25 782.92
  L 789.25 806.56
  A 0.43 0.43 0.0 0 0 789.68 806.99
  L 794.82 806.99
  A 0.43 0.43 0.0 0 0 795.25 806.56
  L 795.25 782.92
  Z
  M 877.25 782.81
  A 0.31 0.31 0.0 0 0 876.94 782.50
  L 871.56 782.50
  A 0.31 0.31 0.0 0 0 871.25 782.81
  L 871.25 806.69
  A 0.31 0.31 0.0 0 0 871.56 807.00
  L 876.94 807.00
  A 0.31 0.31 0.0 0 0 877.25 806.69
  L 877.25 782.81
  Z"
/>
<path fill="#feb40e" d="
  M 248.73 679.24
  Q 249.42 680.67 250.11 679.24
  Q 324.11 525.74 397.94 372.69
  Q 399.51 369.43 396.18 369.64
  Q 394.37 369.75 394.32 369.75
  Q 368.66 369.88 342.89 369.50
  Q 340.70 369.47 339.75 371.44
  L 250.31 557.33
  Q 249.49 559.01 248.64 557.35
  Q 244.39 549.09 240.12 540.41
  Q 239.04 538.22 239.29 535.94
  Q 239.44 534.58 240.77 531.82
  Q 283.89 442.21 327.19 352.69
  Q 328.07 350.86 329.50 350.39
  Q 329.92 350.25 332.51 350.25
  Q 378.89 350.25 425.27 350.25
  Q 427.36 350.25 428.19 350.58
  Q 430.19 351.38 428.90 353.75
  Q 428.31 354.84 428.28 354.90
  Q 342.13 534.03 255.92 713.13
  Q 254.32 716.45 252.39 717.33
  Q 249.48 718.66 246.06 716.69
  Q 244.09 715.55 242.14 711.52
  Q 159.91 540.98 77.45 370.59
  A 1.42 1.42 -10.3 0 0 76.29 369.79
  Q 68.00 369.14 60.40 369.74
  A 0.76 0.75 78.4 0 0 59.75 370.74
  Q 60.49 372.91 61.49 374.97
  Q 143.98 545.51 226.44 716.07
  A 0.82 0.82 77.1 0 1 225.70 717.25
  L 207.95 717.25
  Q 206.13 717.25 205.33 715.61
  L 28.96 351.61
  A 0.60 0.60 76.8 0 1 29.49 350.75
  Q 58.34 350.54 87.19 350.31
  Q 89.61 350.29 90.63 352.84
  Q 91.34 354.64 91.38 354.73
  Q 170.42 517.23 248.73 679.24
  Z"
/>
<path fill="#feb40e" d="
  M 249.90 598.86
  Q 251.92 593.24 254.80 587.31
  Q 302.87 488.20 351.21 388.05
  A 1.46 1.41 -77.2 0 1 352.46 387.23
  L 370.47 386.93
  Q 373.29 386.88 372.05 389.46
  L 250.06 641.83
  Q 248.85 644.33 247.64 641.82
  L 107.82 352.06
  A 1.26 1.26 77.0 0 1 108.95 350.25
  Q 117.13 350.25 125.25 350.25
  Q 128.04 350.25 129.49 351.70
  Q 129.95 352.17 131.46 355.29
  Q 189.92 476.94 248.61 598.92
  Q 249.33 600.42 249.90 598.86
  Z"
/>
<rect fill="#2d3f79" x="399.25" y="525.75" width="33.26" height="185.50" rx="0.27"/>
<path fill="#2d3f79" d="
  M 578.96 655.72
  L 627.93 526.31
  A 0.87 0.86 10.2 0 1 628.74 525.75
  L 663.95 525.81
  A 0.34 0.33 -78.6 0 1 664.25 526.28
  L 590.79 710.74
  A 0.81 0.80 10.7 0 1 590.04 711.25
  L 566.38 711.25
  A 0.90 0.89 -10.4 0 1 565.54 710.68
  L 491.75 526.29
  A 0.35 0.35 79.1 0 1 492.07 525.81
  L 527.73 525.75
  A 0.81 0.80 79.3 0 1 528.48 526.27
  L 577.84 655.72
  Q 578.40 657.20 578.96 655.72
  Z"
/>
<path fill="#2d3f79" d="
  M 757.31 679.69
  L 845.87 679.75
  A 0.88 0.87 0.0 0 1 846.75 680.62
  L 846.75 710.74
  A 0.51 0.51 -0.0 0 1 846.24 711.25
  L 724.07 711.19
  A 0.57 0.57 -45.0 0 1 723.50 710.62
  L 723.50 526.31
  A 0.56 0.56 45.0 0 1 724.06 525.75
  L 846.18 525.81
  A 0.51 0.50 0.0 0 1 846.69 526.31
  L 846.75 555.75
  A 0.50 0.50 -45.0 0 1 846.25 556.25
  L 757.25 556.25
  A 0.50 0.50 45.0 0 0 756.75 556.75
  L 756.75 602.44
  A 0.56 0.56 0.0 0 0 757.31 603.00
  L 839.93 603.06
  A 0.51 0.50 0.0 0 1 840.44 603.56
  L 840.50 633.20
  A 0.55 0.55 -45.0 0 1 839.95 633.75
  L 757.33 633.75
  A 0.58 0.58 0.0 0 0 756.75 634.33
  L 756.81 679.18
  A 0.51 0.50 90.0 0 0 757.31 679.69
  Z"
/>
<path fill="#2d3f79" d="
  M 954.06 679.69
  L 1032.38 679.75
  A 0.37 0.37 -90.0 0 1 1032.75 680.12
  L 1032.75 710.69
  A 0.56 0.56 45.0 0 1 1032.19 711.25
  L 920.80 711.19
  A 0.50 0.49 90.0 0 1 920.31 710.69
  L 920.19 526.42
  A 0.67 0.67 45.0 0 1 920.86 525.75
  L 952.68 525.75
  A 0.82 0.82 -0.0 0 1 953.50 526.57
  L 953.56 679.19
  A 0.50 0.50 -45.0 0 0 954.06 679.69
  Z"
/>
<path fill="#000000" d="
  M 56.18 799.55
  L 43.81 799.55
  A 0.74 0.71 9.5 0 0 43.12 800.02
  L 41.08 805.78
  A 1.65 1.34 -78.3 0 1 39.71 806.90
  L 34.50 806.84
  A 0.42 0.37 -77.9 0 1 34.18 806.28
  Q 40.08 791.08 46.29 776.01
  Q 47.56 772.94 47.58 772.92
  Q 48.68 771.87 51.67 772.60
  A 1.80 1.79 -3.8 0 1 52.92 773.69
  L 65.90 806.38
  A 0.41 0.39 79.0 0 1 65.54 806.94
  L 59.94 806.87
  A 0.82 0.65 77.4 0 1 59.28 806.34
  L 56.88 800.02
  A 0.76 0.71 -9.3 0 0 56.18 799.55
  Z
  M 54.06 794.09
  A 0.40 0.38 -9.7 0 0 54.44 793.58
  L 50.18 782.22
  Q 50.00 781.72 49.82 782.21
  L 45.72 793.72
  A 0.35 0.32 9.3 0 0 46.06 794.15
  L 54.06 794.09
  Z"
/>
<path fill="#000000" d="
  M 175.40 784.18
  L 175.40 772.94
  A 0.57 0.53 90.0 0 1 175.93 772.37
  L 180.61 772.33
  A 0.95 0.88 89.7 0 1 181.50 773.28
  L 181.50 806.34
  A 0.66 0.66 -0.5 0 1 180.84 807.00
  L 176.76 807.00
  A 1.10 0.63 -8.1 0 1 175.90 806.66
  Q 175.58 806.12 175.86 805.09
  Q 176.21 803.86 175.23 804.68
  Q 170.88 808.29 166.10 807.13
  Q 162.94 806.36 160.73 803.64
  Q 158.54 800.94 158.03 797.51
  Q 157.37 793.12 158.71 789.06
  Q 160.25 784.38 165.06 782.56
  Q 170.16 780.63 175.04 784.37
  Q 175.40 784.65 175.40 784.18
  Z
  M 169.8312 802.1199
  A 7.41 5.98 90.3 0 0 175.8499 794.7413
  A 7.41 5.98 90.3 0 0 169.9088 787.3001
  A 7.41 5.98 90.3 0 0 163.8901 794.6787
  A 7.41 5.98 90.3 0 0 169.8312 802.1199
  Z"
/>
<rect fill="#000000" x="-3.15" y="-2.74" transform="translate(299.58,775.00) rotate(-0.3)" width="6.30" height="5.48" rx="0.36"/>
<path fill="#000000" d="
  M 402.03 804.86
  Q 394.83 809.94 389.14 805.19
  Q 386.26 802.79 385.20 798.92
  Q 384.14 795.06 385.02 791.23
  Q 386.32 785.54 390.53 783.23
  Q 395.26 780.64 401.71 784.24
  A 0.34 0.33 -76.0 0 0 402.21 783.93
  L 402.07 772.91
  A 0.67 0.65 -0.4 0 1 402.74 772.25
  L 407.59 772.25
  A 0.66 0.66 0.1 0 1 408.25 772.91
  L 408.25 806.24
  A 0.72 0.72 -1.7 0 1 407.57 806.96
  Q 405.85 807.05 403.75 806.97
  Q 402.05 806.90 402.34 805.04
  Q 402.41 804.59 402.03 804.86
  Z
  M 396.6617 802.1198
  A 7.41 5.98 89.6 0 0 402.5899 794.6683
  A 7.41 5.98 89.6 0 0 396.5583 787.3002
  A 7.41 5.98 89.6 0 0 390.6301 794.7517
  A 7.41 5.98 89.6 0 0 396.6617 802.1198
  Z"
/>
<path fill="#000000" d="
  M 500.56 801.20
  L 516.20 801.25
  A 0.55 0.54 -0.0 0 1 516.75 801.79
  L 516.75 806.48
  A 0.52 0.51 90.0 0 1 516.24 807.00
  L 494.31 806.94
  A 0.50 0.50 45.0 0 1 493.81 806.44
  L 493.81 772.82
  A 0.51 0.50 -90.0 0 1 494.31 772.31
  L 515.98 772.25
  A 0.75 0.73 0.4 0 1 516.73 772.99
  L 516.71 777.44
  A 0.52 0.50 -0.0 0 1 516.19 777.94
  L 500.55 778.00
  A 0.55 0.54 -0.0 0 0 500.00 778.54
  L 500.00 786.24
  A 0.52 0.51 0.0 0 0 500.52 786.75
  L 514.93 786.80
  A 0.62 0.48 1.4 0 1 515.54 787.30
  L 515.34 792.00
  A 0.62 0.52 0.9 0 1 514.72 792.50
  L 500.56 792.50
  A 0.56 0.55 -0.0 0 0 500.00 793.05
  L 500.05 800.69
  A 0.52 0.51 0.6 0 0 500.56 801.20
  Z"
/>
<path fill="#000000" d="
  M 763.04 804.88
  Q 761.10 806.38 758.80 807.05
  Q 756.58 807.70 754.19 807.12
  Q 746.66 805.29 745.75 796.50
  Q 745.19 791.03 747.68 786.97
  Q 750.08 783.07 754.10 782.26
  Q 758.31 781.42 762.66 784.38
  Q 763.08 784.67 763.07 784.16
  L 763.00 772.95
  A 0.71 0.70 0.0 0 1 763.71 772.25
  L 768.59 772.25
  A 0.66 0.66 45.0 0 1 769.25 772.91
  L 769.25 806.24
  A 0.72 0.72 -1.7 0 1 768.57 806.96
  Q 766.85 807.05 764.75 806.97
  Q 763.05 806.90 763.34 805.04
  Q 763.41 804.60 763.04 804.88
  Z
  M 757.6200 802.1200
  A 7.41 5.99 90.0 0 0 763.6100 794.7100
  A 7.41 5.99 90.0 0 0 757.6200 787.3000
  A 7.41 5.99 90.0 0 0 751.6300 794.7100
  A 7.41 5.99 90.0 0 0 757.6200 802.1200
  Z"
/>
<rect fill="#000000" x="-3.11" y="-2.75" transform="translate(792.36,775.00) rotate(0.2)" width="6.22" height="5.50" rx="0.29"/>
<rect fill="#000000" x="-3.12" y="-2.75" transform="translate(874.37,775.00) rotate(-0.2)" width="6.24" height="5.50" rx="0.31"/>
<path fill="#000000" d="
  M 978.43 787.54
  L 975.81 787.46
  A 0.54 0.52 1.1 0 1 975.29 786.94
  L 975.26 783.00
  A 0.55 0.51 -0.5 0 1 975.81 782.48
  L 978.68 782.47
  A 0.55 0.52 -89.4 0 0 979.20 781.93
  L 979.30 776.82
  A 1.05 0.98 73.7 0 1 979.71 776.01
  L 984.58 772.49
  Q 985.00 772.18 985.00 772.71
  L 985.00 781.98
  A 0.52 0.52 0.0 0 0 985.52 782.50
  L 990.61 782.50
  A 0.56 0.51 -0.0 0 1 991.17 783.01
  L 991.15 786.82
  A 0.60 0.56 -0.0 0 1 990.56 787.37
  L 985.51 787.47
  A 0.52 0.49 -0.6 0 0 985.00 787.96
  Q 985.00 791.89 985.00 795.79
  Q 985.00 799.59 985.02 799.70
  Q 985.47 802.68 988.96 802.09
  Q 989.11 802.06 990.34 801.61
  Q 991.57 801.16 991.37 802.81
  Q 991.29 803.53 991.37 804.19
  Q 991.73 806.87 989.52 807.24
  Q 988.82 807.35 986.49 807.27
  Q 978.72 807.03 979.25 798.50
  Q 979.36 796.69 978.96 788.05
  A 0.55 0.53 0.0 0 0 978.43 787.54
  Z"
/>
<path fill="#ffffff" d="
  M 54.06 794.09
  L 46.06 794.15
  A 0.35 0.32 9.3 0 1 45.72 793.72
  L 49.82 782.21
  Q 50.00 781.72 50.18 782.22
  L 54.44 793.58
  A 0.40 0.38 -9.7 0 1 54.06 794.09
  Z"
/>
<path fill="#000000" d="
  M 82.59 801.42
  Q 79.84 796.68 81.73 790.45
  Q 84.38 781.65 93.44 782.06
  Q 100.20 782.37 103.00 788.73
  A 0.49 0.48 -22.7 0 1 102.73 789.37
  L 98.23 791.22
  A 0.58 0.57 -23.7 0 1 97.49 790.94
  Q 96.01 787.64 93.06 787.48
  Q 90.59 787.33 88.78 789.61
  Q 86.24 792.80 87.22 796.81
  Q 88.02 800.11 90.78 801.51
  Q 94.70 803.50 97.50 798.69
  A 0.65 0.54 -62.4 0 1 98.23 798.39
  L 102.58 800.25
  A 0.50 0.44 -62.5 0 1 102.75 800.94
  Q 98.27 808.72 90.74 807.12
  Q 85.23 805.95 82.59 801.42
  Z"
/>
<path fill="#000000" d="
  M 134.03 804.24
  Q 131.97 807.13 127.81 807.31
  Q 118.81 807.72 118.50 799.00
  Q 118.42 796.61 119.96 795.01
  Q 121.08 793.87 123.47 793.19
  Q 128.49 791.78 133.87 792.52
  A 0.43 0.42 -87.8 0 0 134.35 792.07
  Q 134.24 790.10 133.34 788.88
  Q 132.49 787.72 130.64 787.41
  Q 126.77 786.76 124.23 790.04
  A 0.58 0.50 -53.2 0 1 123.50 790.20
  L 119.87 787.60
  A 0.53 0.49 -51.7 0 1 119.81 786.86
  Q 123.46 782.37 128.76 782.09
  Q 133.31 781.85 136.47 784.18
  Q 140.07 786.84 140.15 792.25
  Q 140.25 798.88 140.25 806.19
  A 0.64 0.56 90.0 0 1 139.69 806.83
  L 135.80 806.83
  A 0.64 0.45 -89.4 0 1 135.35 806.18
  Q 135.36 805.02 134.65 804.17
  A 0.42 0.37 -48.2 0 0 134.03 804.24
  Z
  M 127.33 802.08
  Q 132.59 802.78 134.29 797.54
  A 0.46 0.46 15.4 0 0 133.95 796.95
  Q 130.22 796.18 126.61 797.22
  Q 125.40 797.57 124.89 798.46
  Q 124.13 799.76 124.90 800.85
  Q 125.61 801.86 127.33 802.08
  Z"
/>
<path fill="#000000" d="
  M 205.89 797.31
  Q 206.55 800.92 210.24 801.78
  Q 213.68 802.58 216.99 800.26
  A 1.03 1.02 -46.9 0 1 218.09 800.22
  Q 220.36 801.55 221.24 802.81
  A 0.63 0.60 -39.6 0 1 221.15 803.60
  Q 216.78 807.86 210.49 807.39
  Q 203.64 806.88 200.81 801.19
  Q 198.71 796.96 199.93 791.54
  Q 201.39 785.03 206.62 782.96
  Q 211.33 781.09 216.32 783.25
  Q 223.52 786.36 222.59 796.06
  A 0.69 0.68 -87.2 0 1 221.91 796.68
  L 206.31 796.81
  A 0.43 0.42 -5.1 0 0 205.89 797.31
  Z
  M 216.17 792.31
  A 0.41 0.40 -3.1 0 0 216.58 791.87
  Q 216.32 789.41 214.72 788.15
  Q 213.28 787.02 211.07 787.09
  Q 207.04 787.23 205.91 791.80
  A 0.37 0.36 6.8 0 0 206.27 792.25
  L 216.17 792.31
  Z"
/>
<path fill="#000000" d="
  M 246.96 784.37
  Q 254.01 778.93 259.45 785.85
  A 0.39 0.38 -44.6 0 0 260.06 785.85
  Q 262.65 782.63 265.50 782.25
  Q 272.36 781.33 275.18 785.95
  Q 276.75 788.50 276.94 794.85
  Q 277.09 800.31 276.98 806.27
  A 0.67 0.63 -89.5 0 1 276.35 806.93
  L 271.44 806.88
  A 0.59 0.53 89.4 0 1 270.92 806.31
  Q 270.69 800.61 270.75 791.75
  Q 270.76 789.70 269.40 788.55
  Q 268.22 787.57 266.39 787.80
  Q 263.30 788.18 262.25 790.93
  Q 261.75 792.23 261.75 795.63
  Q 261.75 800.87 261.75 806.34
  A 0.66 0.66 -0.1 0 1 261.09 807.00
  L 256.40 807.00
  A 0.69 0.67 89.6 0 1 255.73 806.32
  L 255.50 790.74
  Q 255.46 788.15 252.77 787.75
  Q 249.31 787.23 247.69 789.74
  Q 246.77 791.18 246.63 794.46
  Q 246.38 800.21 246.51 806.43
  A 0.56 0.55 -1.0 0 1 245.95 807.00
  L 241.17 807.00
  A 0.67 0.67 0.2 0 1 240.50 806.33
  L 240.50 783.06
  A 0.56 0.56 0.2 0 1 241.06 782.50
  Q 243.37 782.50 245.50 782.54
  Q 247.09 782.56 246.71 784.21
  Q 246.60 784.65 246.96 784.37
  Z"
/>
<path fill="#000000" d="
  M 336.00 804.20
  Q 331.68 809.30 325.19 806.56
  Q 321.06 804.82 320.50 800.78
  Q 320.07 797.73 321.71 795.49
  Q 323.48 793.07 326.99 792.68
  Q 331.20 792.22 335.84 792.32
  A 0.48 0.48 88.9 0 0 336.33 791.81
  Q 336.23 789.98 335.31 788.81
  Q 334.46 787.74 332.73 787.43
  Q 328.80 786.74 326.23 790.04
  A 0.59 0.50 -53.6 0 1 325.50 790.21
  L 321.86 787.59
  A 0.53 0.47 -52.5 0 1 321.81 786.86
  Q 326.73 780.67 334.00 782.25
  Q 341.94 783.97 342.11 792.25
  Q 342.25 798.88 342.25 806.19
  A 0.64 0.56 90.0 0 1 341.69 806.83
  L 337.80 806.83
  A 0.64 0.45 -89.4 0 1 337.35 806.18
  Q 337.36 805.02 336.65 804.17
  A 0.44 0.40 -45.2 0 0 336.00 804.20
  Z
  M 329.50 802.13
  Q 334.39 802.72 336.38 797.41
  A 0.44 0.44 11.8 0 0 335.99 796.82
  Q 332.60 796.59 329.88 796.88
  Q 328.34 797.05 327.45 797.77
  Q 325.85 799.07 326.87 800.64
  Q 327.69 801.91 329.50 802.13
  Z"
/>
<path fill="#000000" d="
  M 432.97 797.29
  Q 435.46 804.29 442.43 801.15
  Q 442.93 800.92 443.83 800.04
  Q 445.02 798.87 445.97 800.45
  Q 446.52 801.37 447.43 801.94
  Q 449.10 803.00 447.93 803.93
  Q 441.68 808.86 435.03 806.82
  Q 429.90 805.25 427.68 800.68
  Q 425.41 795.99 427.21 790.19
  Q 428.58 785.77 432.14 783.67
  Q 435.31 781.79 439.63 782.25
  Q 449.21 783.27 449.78 795.08
  A 1.61 1.59 -1.5 0 1 448.18 796.75
  L 433.32 796.81
  A 0.37 0.36 -9.5 0 0 432.97 797.29
  Z
  M 443.17 792.31
  A 0.41 0.40 -3.1 0 0 443.58 791.87
  Q 443.19 788.10 439.72 787.40
  Q 434.34 786.32 432.91 791.84
  A 0.40 0.39 6.8 0 0 433.30 792.32
  L 443.17 792.31
  Z"
/>
<path fill="#000000" d="
  M 542.70 784.38
  Q 549.60 779.08 555.18 785.61
  A 0.45 0.44 47.1 0 0 555.84 785.64
  Q 558.73 782.58 561.25 782.25
  Q 568.10 781.35 570.93 785.95
  Q 572.50 788.51 572.69 794.84
  Q 572.84 800.27 572.73 806.14
  A 0.88 0.87 0.3 0 1 571.85 807.00
  L 567.16 807.00
  A 0.66 0.66 45.0 0 1 566.50 806.34
  Q 566.50 798.88 566.38 791.75
  Q 566.34 789.02 564.38 788.05
  Q 562.76 787.24 560.75 788.06
  Q 557.50 789.39 557.50 793.25
  Q 557.50 799.62 557.50 806.48
  A 0.52 0.52 -0.0 0 1 556.98 807.00
  L 552.39 807.00
  A 0.91 0.91 -89.4 0 1 551.48 806.07
  Q 551.64 798.71 551.31 792.19
  Q 551.16 789.19 549.26 788.12
  Q 547.52 787.15 545.36 788.11
  Q 542.92 789.19 542.50 792.00
  Q 541.96 795.61 542.30 806.32
  A 0.56 0.48 89.4 0 1 541.82 806.89
  L 536.93 806.88
  A 0.57 0.50 -90.0 0 1 536.43 806.31
  L 536.31 783.06
  A 0.52 0.50 -90.0 0 1 536.81 782.54
  L 541.68 782.54
  A 0.55 0.54 88.3 0 1 542.22 783.06
  L 542.28 784.18
  Q 542.31 784.68 542.70 784.38
  Z"
/>
<path fill="#000000" d="
  M 598.09 805.38
  L 598.10 817.06
  A 0.56 0.54 89.5 0 1 597.57 817.62
  L 592.81 817.73
  A 0.55 0.49 89.5 0 1 592.31 817.18
  L 592.19 783.18
  A 0.57 0.49 -89.5 0 1 592.69 782.61
  L 597.75 782.66
  A 0.49 0.42 -83.2 0 1 598.14 783.24
  Q 597.80 785.01 598.97 784.10
  Q 599.44 783.74 599.69 783.61
  Q 605.92 780.30 610.65 783.74
  Q 613.92 786.12 615.09 790.55
  Q 616.16 794.64 615.11 799.08
  Q 613.66 805.18 608.56 806.81
  Q 603.51 808.43 598.73 805.02
  Q 598.08 804.56 598.09 805.38
  Z
  M 603.6658 802.0400
  A 7.38 6.00 89.8 0 0 609.6400 794.6391
  A 7.38 6.00 89.8 0 0 603.6142 787.2800
  A 7.38 6.00 89.8 0 0 597.6400 794.6809
  A 7.38 6.00 89.8 0 0 603.6658 802.0400
  Z"
/>
<path fill="#000000" d="
  M 639.56 786.10
  Q 639.57 786.82 639.93 786.20
  Q 643.64 779.92 650.00 783.32
  A 0.60 0.49 28.0 0 1 650.30 784.03
  L 648.07 788.13
  A 0.62 0.47 27.7 0 1 647.31 788.26
  Q 645.80 787.51 645.00 787.75
  Q 640.16 789.21 639.75 794.25
  Q 639.35 799.12 639.49 806.26
  A 0.60 0.60 -5.1 0 1 639.01 806.86
  Q 636.65 807.31 634.30 806.80
  A 0.64 0.61 -84.5 0 1 633.81 806.18
  L 633.75 783.28
  A 0.79 0.78 0.0 0 1 634.54 782.50
  L 639.04 782.50
  A 0.52 0.52 -0.0 0 1 639.56 783.02
  L 639.56 786.10
  Z"
/>
<path fill="#000000" d="
  M 671.15 797.31
  Q 671.92 801.23 676.07 801.88
  Q 679.55 802.41 682.52 799.90
  A 0.64 0.61 -44.1 0 1 683.33 799.89
  L 686.54 802.67
  A 0.65 0.60 -46.6 0 1 686.53 803.60
  Q 682.08 807.82 675.99 807.45
  Q 668.89 807.01 666.00 801.00
  Q 663.98 796.79 665.17 791.54
  Q 666.64 785.03 671.87 782.96
  Q 676.60 781.08 681.57 783.26
  Q 688.76 786.42 687.81 796.32
  A 0.26 0.26 -87.6 0 1 687.55 796.56
  L 671.56 796.81
  A 0.42 0.42 -6.2 0 0 671.15 797.31
  Z
  M 681.44 792.31
  A 0.43 0.42 -5.0 0 0 681.87 791.81
  Q 681.48 789.39 679.95 788.16
  Q 678.55 787.02 676.31 787.10
  Q 672.21 787.25 671.07 791.80
  A 0.36 0.36 7.4 0 0 671.42 792.25
  L 681.44 792.31
  Z"
/>
<path fill="#000000" d="
  M 712.86 784.66
  Q 717.24 780.58 722.44 782.56
  Q 727.80 784.61 728.07 791.25
  Q 728.37 798.50 728.24 806.48
  A 0.53 0.53 -89.4 0 1 727.71 807.00
  L 722.77 807.00
  A 0.52 0.52 -0.0 0 1 722.25 806.48
  Q 722.25 799.62 722.16 793.00
  Q 722.10 789.05 719.24 787.94
  Q 716.68 786.94 714.38 788.42
  Q 712.01 789.94 712.03 793.50
  Q 712.05 799.97 711.95 806.44
  A 0.55 0.50 -88.9 0 1 711.44 806.98
  L 706.68 806.87
  A 0.56 0.51 -89.5 0 1 706.18 806.31
  L 706.20 783.01
  A 0.52 0.51 0.0 0 1 706.72 782.50
  L 711.12 782.50
  A 0.88 0.88 -82.2 0 1 711.97 783.62
  Q 711.79 784.25 712.12 784.68
  A 0.56 0.45 -40.7 0 0 712.86 784.66
  Z"
/>
<path fill="#000000" d="
  M 828.74 788.35
  Q 824.84 786.59 822.82 789.36
  Q 821.71 790.89 821.43 794.27
  Q 820.95 800.22 821.40 806.19
  A 0.58 0.56 82.0 0 1 820.96 806.80
  Q 818.38 807.36 815.80 806.80
  A 0.64 0.61 -84.5 0 1 815.31 806.18
  L 815.25 783.26
  A 0.64 0.57 -89.6 0 1 815.83 782.62
  L 820.94 782.70
  A 0.53 0.43 -83.9 0 1 821.34 783.31
  Q 820.89 785.79 822.49 783.95
  Q 822.85 783.53 823.24 783.33
  Q 829.90 779.82 834.16 785.78
  A 0.37 0.37 -42.9 0 0 834.75 785.80
  Q 838.88 780.95 844.75 782.25
  Q 850.32 783.48 851.44 789.81
  Q 852.28 794.58 851.59 806.32
  A 0.60 0.52 -88.3 0 1 851.07 806.89
  L 846.18 806.88
  A 0.59 0.52 88.3 0 1 845.66 806.32
  Q 845.31 798.40 845.50 792.75
  Q 845.66 787.92 841.72 787.72
  Q 839.96 787.63 838.68 788.70
  Q 837.79 789.44 837.22 790.47
  Q 836.76 791.30 836.69 792.63
  Q 836.34 799.24 836.52 806.42
  A 0.57 0.57 89.5 0 1 835.95 807.00
  L 831.02 807.00
  A 0.52 0.52 -0.0 0 1 830.50 806.48
  Q 830.50 800.63 830.50 795.00
  Q 830.50 791.29 829.41 789.00
  A 1.40 1.33 0.8 0 0 828.74 788.35
  Z"
/>
<path fill="#000000" d="
  M 901.72 797.30
  Q 904.08 804.17 910.97 801.20
  Q 911.42 801.01 912.43 800.13
  Q 913.52 799.19 914.49 800.17
  Q 915.69 801.39 915.83 801.51
  Q 916.51 802.09 916.99 802.82
  A 0.62 0.61 -39.1 0 1 916.90 803.60
  Q 912.52 807.80 906.00 807.25
  Q 902.86 806.99 900.49 805.49
  Q 898.23 804.06 896.77 801.34
  Q 893.97 796.14 895.99 790.00
  Q 897.37 785.78 900.78 783.70
  Q 903.81 781.84 908.01 782.19
  Q 917.75 782.99 918.54 794.85
  Q 918.67 796.74 916.75 796.75
  L 902.06 796.81
  A 0.37 0.36 80.3 0 0 901.72 797.30
  Z
  M 912.10 792.33
  A 0.35 0.35 -4.2 0 0 912.45 791.93
  Q 911.66 787.06 907.22 787.10
  Q 905.06 787.12 903.64 788.23
  Q 901.99 789.51 901.73 791.80
  A 0.45 0.45 3.4 0 0 902.18 792.30
  L 912.10 792.33
  Z"
/>
<path fill="#000000" d="
  M 942.96 784.62
  Q 946.22 782.07 948.75 782.00
  Q 954.14 781.84 956.66 785.43
  Q 958.23 787.65 958.40 792.94
  Q 958.61 799.62 958.57 806.31
  A 0.58 0.50 -89.4 0 1 958.07 806.88
  L 953.42 806.93
  A 0.75 0.69 -89.2 0 1 952.73 806.16
  Q 952.92 798.24 952.50 791.25
  Q 952.33 788.53 949.03 787.85
  Q 945.52 787.13 943.81 789.33
  Q 942.79 790.65 942.61 793.92
  Q 942.09 803.11 942.50 805.00
  Q 943.06 807.56 940.49 807.00
  Q 939.50 806.78 938.51 807.00
  Q 936.25 807.49 936.41 805.57
  Q 936.50 804.51 936.50 804.42
  Q 936.46 793.74 936.56 783.07
  A 0.53 0.50 90.0 0 1 937.06 782.54
  L 941.93 782.54
  A 0.54 0.53 88.9 0 1 942.46 783.06
  L 942.54 784.44
  Q 942.56 784.93 942.96 784.62
  Z"
/>
<path fill="#000000" d="
  M 1032.47 794.71
  A 12.65 12.65 0.0 0 1 1019.82 807.36
  A 12.65 12.65 0.0 0 1 1007.17 794.71
  A 12.65 12.65 0.0 0 1 1019.82 782.06
  A 12.65 12.65 0.0 0 1 1032.47 794.71
  Z
  M 1019.8970 802.3997
  A 7.68 6.33 89.5 0 0 1026.1598 794.6648
  A 7.68 6.33 89.5 0 0 1019.7630 787.0403
  A 7.68 6.33 89.5 0 0 1013.5002 794.7752
  A 7.68 6.33 89.5 0 0 1019.8970 802.3997
  Z"
/>
<rect fill="#000000" x="296.50" y="782.49" width="6.00" height="24.50" rx="0.43"/>
<rect fill="#000000" x="789.25" y="782.49" width="6.00" height="24.50" rx="0.43"/>
<rect fill="#000000" x="871.25" y="782.50" width="6.00" height="24.50" rx="0.31"/>
<path fill="#ffffff" d="
  M 216.17 792.31
  L 206.27 792.25
  A 0.37 0.36 6.8 0 1 205.91 791.80
  Q 207.04 787.23 211.07 787.09
  Q 213.28 787.02 214.72 788.15
  Q 216.32 789.41 216.58 791.87
  A 0.41 0.40 -3.1 0 1 216.17 792.31
  Z"
/>
<path fill="#ffffff" d="
  M 443.17 792.31
  L 433.30 792.32
  A 0.40 0.39 6.8 0 1 432.91 791.84
  Q 434.34 786.32 439.72 787.40
  Q 443.19 788.10 443.58 791.87
  A 0.41 0.40 -3.1 0 1 443.17 792.31
  Z"
/>
<path fill="#ffffff" d="
  M 681.44 792.31
  L 671.42 792.25
  A 0.36 0.36 7.4 0 1 671.07 791.80
  Q 672.21 787.25 676.31 787.10
  Q 678.55 787.02 679.95 788.16
  Q 681.48 789.39 681.87 791.81
  A 0.43 0.42 -5.0 0 1 681.44 792.31
  Z"
/>
<path fill="#ffffff" d="
  M 912.10 792.33
  L 902.18 792.30
  A 0.45 0.45 3.4 0 1 901.73 791.80
  Q 901.99 789.51 903.64 788.23
  Q 905.06 787.12 907.22 787.10
  Q 911.66 787.06 912.45 791.93
  A 0.35 0.35 -4.2 0 1 912.10 792.33
  Z"
/>
<ellipse fill="#ffffff" cx="0.00" cy="0.00" transform="translate(1019.83,794.72) rotate(89.5)" rx="7.68" ry="6.33"/>
<ellipse fill="#ffffff" cx="0.00" cy="0.00" transform="translate(169.87,794.71) rotate(90.3)" rx="7.41" ry="5.98"/>
<ellipse fill="#ffffff" cx="0.00" cy="0.00" transform="translate(396.61,794.71) rotate(89.6)" rx="7.41" ry="5.98"/>
<ellipse fill="#ffffff" cx="0.00" cy="0.00" transform="translate(603.64,794.66) rotate(89.8)" rx="7.38" ry="6.00"/>
<ellipse fill="#ffffff" cx="0.00" cy="0.00" transform="translate(757.62,794.71) rotate(90.0)" rx="7.41" ry="5.99"/>
<path fill="#ffffff" d="
  M 124.90 800.85
  Q 124.13 799.76 124.89 798.46
  Q 125.40 797.57 126.61 797.22
  Q 130.22 796.18 133.95 796.95
  A 0.46 0.46 15.4 0 1 134.29 797.54
  Q 132.59 802.78 127.33 802.08
  Q 125.61 801.86 124.90 800.85
  Z"
/>
<path fill="#ffffff" d="
  M 326.87 800.64
  Q 325.85 799.07 327.45 797.77
  Q 328.34 797.05 329.88 796.88
  Q 332.60 796.59 335.99 796.82
  A 0.44 0.44 11.8 0 1 336.38 797.41
  Q 334.39 802.72 329.50 802.13
  Q 327.69 801.91 326.87 800.64
  Z"
/>
</svg>
