<?xml version="1.0" encoding="UTF-8" standalone="no"?>
<!DOCTYPE svg PUBLIC "-//W3C//DTD SVG 1.1//EN" "http://www.w3.org/Graphics/SVG/1.1/DTD/svg11.dtd">
<svg xmlns="http://www.w3.org/2000/svg" version="1.1" viewBox="0 0 582 307">
<g stroke-width="2.0" fill="none" stroke-linecap="butt">
<path stroke="#ffda85" vector-effect="non-scaling-stroke" d="
  M 43.44 50.81
  Q 54.01 103.02 86.71 266.44
  C 86.77 266.73 87.02 266.94 87.31 266.94
  L 129.19 266.94
  C 129.45 266.94 129.64 266.71 129.59 266.46
  L 82.98 34.79
  C 82.89 34.37 82.52 34.06 82.09 34.06
  L 40.68 34.18
  C 40.42 34.18 40.23 34.42 40.27 34.68
  Q 41.02 38.86 43.44 50.81"
/>
<path stroke="#ffda85" vector-effect="non-scaling-stroke" d="
  M 144.92 266.02
  Q 167.91 152.22 190.85 37.85
  Q 190.96 37.31 191.51 35.87
  Q 192.34 33.70 189.93 33.87
  Q 188.11 34.00 188.05 34.00
  Q 169.14 34.00 149.78 34.00
  C 149.40 34.00 149.07 34.27 149.00 34.64
  Q 136.38 97.11 123.77 159.92
  Q 123.25 162.50 123.75 165.08
  Q 133.54 215.61 144.00 266.02
  Q 144.47 268.26 144.92 266.02"
/>
<path stroke="#949ebd" vector-effect="non-scaling-stroke" d="
  M 239.50 101.56
  C 239.50 101.16 239.17 100.83 238.77 100.83
  L 219.73 100.83
  C 219.33 100.83 219.00 101.16 219.00 101.56
  L 219.00 199.02
  C 219.00 199.42 219.33 199.75 219.73 199.75
  L 238.77 199.75
  C 239.17 199.75 239.50 199.42 239.50 199.02
  L 239.50 101.56"
/>
<path stroke="#949ebd" vector-effect="non-scaling-stroke" d="
  M 315.08 174.76
  L 289.97 101.94
  C 289.78 101.38 289.26 101.00 288.67 101.00
  L 268.32 101.06
  C 268.07 101.06 267.90 101.31 267.99 101.54
  L 303.94 199.27
  C 304.05 199.56 304.32 199.75 304.63 199.75
  L 325.96 199.75
  C 326.40 199.75 326.79 199.48 326.94 199.07
  L 362.94 101.69
  C 363.06 101.35 362.81 100.99 362.44 100.99
  L 342.12 100.82
  C 341.69 100.82 341.32 101.08 341.18 101.47
  L 315.91 174.76
  Q 315.50 175.97 315.08 174.76"
/>
<path stroke="#949ebd" vector-effect="non-scaling-stroke" d="
  M 504.70 181.69
  C 504.31 181.69 504.00 181.37 504.00 180.98
  L 504.00 101.68
  C 504.00 101.30 503.70 101.00 503.33 101.00
  L 484.06 101.06
  C 483.78 101.06 483.56 101.29 483.56 101.57
  L 483.50 198.82
  C 483.50 199.33 483.91 199.75 484.42 199.75
  L 534.30 199.57
  C 534.59 199.57 534.83 199.34 534.83 199.06
  L 534.95 182.31
  C 534.95 182.03 534.72 181.81 534.43 181.81
  L 504.70 181.69"
/>
<path stroke="#949ebd" vector-effect="non-scaling-stroke" d="
  M 412.31 140.95
  L 412.25 119.42
  C 412.25 119.05 412.55 118.75 412.92 118.75
  L 448.19 118.75
  C 448.50 118.75 448.75 118.50 448.75 118.19
  L 448.75 101.52
  C 448.75 101.23 448.52 101.00 448.23 101.00
  L 391.87 101.00
  C 391.67 101.00 391.50 101.17 391.50 101.37
  L 391.50 198.93
  C 391.50 199.38 391.87 199.75 392.32 199.75
  L 448.07 199.75
  C 448.44 199.75 448.74 199.45 448.74 199.09
  L 448.58 182.19
  C 448.58 181.92 448.35 181.70 448.07 181.70
  L 412.94 181.57
  C 412.65 181.57 412.42 181.34 412.42 181.05
  L 412.26 159.87
  C 412.26 159.53 412.54 159.25 412.89 159.25
  L 443.85 159.25
  C 444.34 159.25 444.74 158.86 444.73 158.39
  L 444.58 141.94
  C 444.58 141.66 444.35 141.44 444.06 141.44
  L 412.81 141.44
  C 412.53 141.44 412.31 141.22 412.31 140.95"
/>
</g>
<path fill="#ffffff" d="
  M 0.00 0.00
  Q 291.00 0.00 582.00 0.00
  Q 582.00 153.50 582.00 307.00
  Q 291.00 307.00 0.00 307.00
  Q 0.00 153.50 0.00 0.00
  Z
  M 43.44 50.81
  Q 54.01 103.02 86.71 266.44
  C 86.77 266.73 87.02 266.94 87.31 266.94
  L 129.19 266.94
  C 129.45 266.94 129.64 266.71 129.59 266.46
  L 82.98 34.79
  C 82.89 34.37 82.52 34.06 82.09 34.06
  L 40.68 34.18
  C 40.42 34.18 40.23 34.42 40.27 34.68
  Q 41.02 38.86 43.44 50.81
  Z
  M 144.92 266.02
  Q 167.91 152.22 190.85 37.85
  Q 190.96 37.31 191.51 35.87
  Q 192.34 33.70 189.93 33.87
  Q 188.11 34.00 188.05 34.00
  Q 169.14 34.00 149.78 34.00
  C 149.40 34.00 149.07 34.27 149.00 34.64
  Q 136.38 97.11 123.77 159.92
  Q 123.25 162.50 123.75 165.08
  Q 133.54 215.61 144.00 266.02
  Q 144.47 268.26 144.92 266.02
  Z
  M 239.50 101.56
  C 239.50 101.16 239.17 100.83 238.77 100.83
  L 219.73 100.83
  C 219.33 100.83 219.00 101.16 219.00 101.56
  L 219.00 199.02
  C 219.00 199.42 219.33 199.75 219.73 199.75
  L 238.77 199.75
  C 239.17 199.75 239.50 199.42 239.50 199.02
  L 239.50 101.56
  Z
  M 315.08 174.76
  L 289.97 101.94
  C 289.78 101.38 289.26 101.00 288.67 101.00
  L 268.32 101.06
  C 268.07 101.06 267.90 101.31 267.99 101.54
  L 303.94 199.27
  C 304.05 199.56 304.32 199.75 304.63 199.75
  L 325.96 199.75
  C 326.40 199.75 326.79 199.48 326.94 199.07
  L 362.94 101.69
  C 363.06 101.35 362.81 100.99 362.44 100.99
  L 342.12 100.82
  C 341.69 100.82 341.32 101.08 341.18 101.47
  L 315.91 174.76
  Q 315.50 175.97 315.08 174.76
  Z
  M 504.70 181.69
  C 504.31 181.69 504.00 181.37 504.00 180.98
  L 504.00 101.68
  C 504.00 101.30 503.70 101.00 503.33 101.00
  L 484.06 101.06
  C 483.78 101.06 483.56 101.29 483.56 101.57
  L 483.50 198.82
  C 483.50 199.33 483.91 199.75 484.42 199.75
  L 534.30 199.57
  C 534.59 199.57 534.83 199.34 534.83 199.06
  L 534.95 182.31
  C 534.95 182.03 534.72 181.81 534.43 181.81
  L 504.70 181.69
  Z
  M 412.31 140.95
  L 412.25 119.42
  C 412.25 119.05 412.55 118.75 412.92 118.75
  L 448.19 118.75
  C 448.50 118.75 448.75 118.50 448.75 118.19
  L 448.75 101.52
  C 448.75 101.23 448.52 101.00 448.23 101.00
  L 391.87 101.00
  C 391.67 101.00 391.50 101.17 391.50 101.37
  L 391.50 198.93
  C 391.50 199.38 391.87 199.75 392.32 199.75
  L 448.07 199.75
  C 448.44 199.75 448.74 199.45 448.74 199.09
  L 448.58 182.19
  C 448.58 181.92 448.35 181.70 448.07 181.70
  L 412.94 181.57
  C 412.65 181.57 412.42 181.34 412.42 181.05
  L 412.26 159.87
  C 412.26 159.53 412.54 159.25 412.89 159.25
  L 443.85 159.25
  C 444.34 159.25 444.74 158.86 444.73 158.39
  L 444.58 141.94
  C 444.58 141.66 444.35 141.44 444.06 141.44
  L 412.81 141.44
  C 412.53 141.44 412.31 141.22 412.31 140.95
  Z"
/>
<path fill="#ffb40b" d="
  M 43.44 50.81
  Q 41.02 38.86 40.27 34.68
  C 40.23 34.42 40.42 34.18 40.68 34.18
  L 82.09 34.06
  C 82.52 34.06 82.89 34.37 82.98 34.79
  L 129.59 266.46
  C 129.64 266.71 129.45 266.94 129.19 266.94
  L 87.31 266.94
  C 87.02 266.94 86.77 266.73 86.71 266.44
  Q 54.01 103.02 43.44 50.81
  Z"
/>
<path fill="#ffb40b" d="
  M 144.92 266.02
  Q 144.47 268.26 144.00 266.02
  Q 133.54 215.61 123.75 165.08
  Q 123.25 162.50 123.77 159.92
  Q 136.38 97.11 149.00 34.64
  C 149.07 34.27 149.40 34.00 149.78 34.00
  Q 169.14 34.00 188.05 34.00
  Q 188.11 34.00 189.93 33.87
  Q 192.34 33.70 191.51 35.87
  Q 190.96 37.31 190.85 37.85
  Q 167.91 152.22 144.92 266.02
  Z"
/>
<rect fill="#293d7a" x="219.00" y="100.83" width="20.50" height="98.92" rx="0.73"/>
<path fill="#293d7a" d="
  M 315.08 174.76
  Q 315.50 175.97 315.91 174.76
  L 341.18 101.47
  C 341.32 101.08 341.69 100.82 342.12 100.82
  L 362.44 100.99
  C 362.81 100.99 363.06 101.35 362.94 101.69
  L 326.94 199.07
  C 326.79 199.48 326.40 199.75 325.96 199.75
  L 304.63 199.75
  C 304.32 199.75 304.05 199.56 303.94 199.27
  L 267.99 101.54
  C 267.90 101.31 268.07 101.06 268.32 101.06
  L 288.67 101.00
  C 289.26 101.00 289.78 101.38 289.97 101.94
  L 315.08 174.76
  Z"
/>
<path fill="#293d7a" d="
  M 504.70 181.69
  L 534.43 181.81
  C 534.72 181.81 534.95 182.03 534.95 182.31
  L 534.83 199.06
  C 534.83 199.34 534.59 199.57 534.30 199.57
  L 484.42 199.75
  C 483.91 199.75 483.50 199.33 483.50 198.82
  L 483.56 101.57
  C 483.56 101.29 483.78 101.06 484.06 101.06
  L 503.33 101.00
  C 503.70 101.00 504.00 101.30 504.00 101.68
  L 504.00 180.98
  C 504.00 181.37 504.31 181.69 504.70 181.69
  Z"
/>
<path fill="#293d7a" d="
  M 412.81 141.44
  L 444.06 141.44
  C 444.35 141.44 444.58 141.66 444.58 141.94
  L 444.73 158.39
  C 444.74 158.86 444.34 159.25 443.85 159.25
  L 412.89 159.25
  C 412.54 159.25 412.26 159.53 412.26 159.87
  L 412.42 181.05
  C 412.42 181.34 412.65 181.57 412.94 181.57
  L 448.07 181.70
  C 448.35 181.70 448.58 181.92 448.58 182.19
  L 448.74 199.09
  C 448.74 199.45 448.44 199.75 448.07 199.75
  L 392.32 199.75
  C 391.87 199.75 391.50 199.38 391.50 198.93
  L 391.50 101.37
  C 391.50 101.17 391.67 101.00 391.87 101.00
  L 448.23 101.00
  C 448.52 101.00 448.75 101.23 448.75 101.52
  L 448.75 118.19
  C 448.75 118.50 448.50 118.75 448.19 118.75
  L 412.92 118.75
  C 412.55 118.75 412.25 119.05 412.25 119.42
  L 412.31 140.95
  C 412.31 141.22 412.53 141.44 412.81 141.44
  Z"
/>
</svg>
