<?xml version="1.0" encoding="UTF-8" standalone="no"?>
<!DOCTYPE svg PUBLIC "-//W3C//DTD SVG 1.1//EN" "http://www.w3.org/Graphics/SVG/1.1/DTD/svg11.dtd">
<svg xmlns="http://www.w3.org/2000/svg" version="1.1" viewBox="0 0 542 238">
<g stroke-width="2.0" fill="none" stroke-linecap="butt">
<path stroke="#ffda87" vector-effect="non-scaling-stroke" d="
  M 33.09 53.31
  L 59.39 53.25
  C 59.84 53.25 60.25 53.51 60.45 53.93
  L 103.22 142.95
  Q 103.75 144.07 104.30 142.98
  L 108.35 134.95
  Q 109.10 133.47 108.33 131.86
  L 66.27 44.60
  C 66.09 44.23 65.72 44.00 65.32 44.00
  L 18.47 44.00
  C 17.82 44.00 17.39 44.68 17.67 45.26
  L 101.22 219.12
  C 101.37 219.42 101.61 219.66 101.89 219.78
  Q 103.77 220.60 105.19 219.80
  Q 106.16 219.26 107.18 217.16
  Q 146.60 135.47 186.03 53.87
  C 186.21 53.49 186.60 53.25 187.02 53.25
  L 194.27 53.25
  C 194.62 53.25 194.84 53.62 194.69 53.93
  L 114.83 219.27
  C 114.67 219.60 114.90 219.98 115.26 219.98
  L 124.06 219.85
  C 124.36 219.84 124.64 219.65 124.78 219.36
  L 209.35 44.64
  C 209.45 44.43 209.30 44.18 209.06 44.18
  L 181.42 44.01
  C 180.84 44.01 180.31 44.35 180.05 44.88
  L 103.94 201.94
  Q 103.75 202.33 103.56 201.94
  L 32.44 54.36
  C 32.20 53.87 32.55 53.31 33.09 53.31"
/>
<path stroke="#ffda87" vector-effect="non-scaling-stroke" d="
  M 103.56 163.17
  Q 102.58 160.50 101.33 157.93
  Q 78.12 110.06 55.03 62.14
  C 54.89 61.85 54.61 61.66 54.32 61.65
  L 45.51 61.53
  C 45.00 61.53 44.67 62.07 44.90 62.54
  L 103.36 183.52
  Q 104.05 184.95 104.74 183.52
  L 171.71 44.58
  C 171.84 44.31 171.64 44.00 171.34 44.00
  L 162.34 44.00
  C 161.79 44.00 161.29 44.31 161.05 44.81
  L 104.18 163.20
  Q 103.83 163.93 103.56 163.17"
/>
<path stroke="#949ebd" vector-effect="non-scaling-stroke" d="
  M 320.17 154.01
  L 298.16 90.24
  C 298.06 89.95 297.79 89.75 297.48 89.75
  L 279.64 89.75
  C 279.36 89.75 279.17 90.03 279.26 90.29
  L 310.49 175.48
  C 310.60 175.79 310.90 176.00 311.23 176.00
  L 329.74 176.00
  C 330.12 176.00 330.47 175.76 330.60 175.40
  L 362.01 90.29
  C 362.10 90.06 361.93 89.81 361.69 89.81
  L 343.80 89.68
  C 343.49 89.68 343.21 89.87 343.11 90.16
  L 321.00 154.01
  Q 320.58 155.21 320.17 154.01"
/>
<path stroke="#949ebd" vector-effect="non-scaling-stroke" d="
  M 404.80 159.69
  L 404.92 141.18
  C 404.92 140.91 405.15 140.69 405.43 140.68
  L 432.56 140.32
  C 432.85 140.31 433.09 140.09 433.09 139.81
  L 433.09 125.69
  C 433.09 125.41 432.86 125.19 432.57 125.18
  L 405.44 124.82
  C 405.15 124.81 404.92 124.59 404.92 124.31
  L 404.84 106.34
  C 404.83 105.77 405.30 105.31 405.88 105.31
  L 436.08 105.25
  C 436.44 105.25 436.74 104.96 436.73 104.61
  L 436.59 90.18
  C 436.58 89.91 436.35 89.69 436.06 89.69
  L 387.82 89.81
  C 387.37 89.81 387.00 90.18 387.00 90.63
  L 387.06 175.45
  C 387.06 175.72 387.28 175.94 387.56 175.94
  L 435.83 176.00
  C 436.44 176.00 436.94 175.48 436.93 174.85
  L 436.77 160.93
  C 436.76 160.55 436.47 160.25 436.10 160.25
  L 405.31 160.19
  C 405.03 160.19 404.80 159.97 404.80 159.69"
/>
<path stroke="#949ebd" vector-effect="non-scaling-stroke" d="
  M 467.28 128.69
  Q 467.26 151.97 467.25 175.44
  C 467.25 175.75 467.50 176.00 467.81 176.00
  L 511.15 176.00
  C 511.62 176.00 512.00 175.62 512.00 175.15
  L 512.00 160.80
  C 512.00 160.50 511.75 160.25 511.44 160.25
  L 485.70 160.19
  C 485.31 160.19 485.00 159.87 485.00 159.48
  L 485.00 90.31
  C 485.00 90.00 484.75 89.75 484.43 89.74
  L 467.91 89.58
  C 467.55 89.57 467.25 89.86 467.25 90.21
  Q 467.30 109.72 467.28 128.69"
/>
<path stroke="#949ebd" vector-effect="non-scaling-stroke" d="
  M 254.26 90.19
  C 254.26 89.95 254.07 89.76 253.83 89.76
  L 236.93 89.76
  C 236.69 89.76 236.50 89.95 236.50 90.19
  L 236.50 175.57
  C 236.50 175.81 236.69 176.00 236.93 176.00
  L 253.83 176.00
  C 254.07 176.00 254.26 175.81 254.26 175.57
  L 254.26 90.19"
/>
</g>
<path fill="#ffffff" d="
  M 0.00 0.00
  Q 271.00 0.00 542.00 0.00
  Q 542.00 119.00 542.00 238.00
  Q 271.00 238.00 0.00 238.00
  Q 0.00 119.00 0.00 0.00
  Z
  M 33.09 53.31
  L 59.39 53.25
  C 59.84 53.25 60.25 53.51 60.45 53.93
  L 103.22 142.95
  Q 103.75 144.07 104.30 142.98
  L 108.35 134.95
  Q 109.10 133.47 108.33 131.86
  L 66.27 44.60
  C 66.09 44.23 65.72 44.00 65.32 44.00
  L 18.47 44.00
  C 17.82 44.00 17.39 44.68 17.67 45.26
  L 101.22 219.12
  C 101.37 219.42 101.61 219.66 101.89 219.78
  Q 103.77 220.60 105.19 219.80
  Q 106.16 219.26 107.18 217.16
  Q 146.60 135.47 186.03 53.87
  C 186.21 53.49 186.60 53.25 187.02 53.25
  L 194.27 53.25
  C 194.62 53.25 194.84 53.62 194.69 53.93
  L 114.83 219.27
  C 114.67 219.60 114.90 219.98 115.26 219.98
  L 124.06 219.85
  C 124.36 219.84 124.64 219.65 124.78 219.36
  L 209.35 44.64
  C 209.45 44.43 209.30 44.18 209.06 44.18
  L 181.42 44.01
  C 180.84 44.01 180.31 44.35 180.05 44.88
  L 103.94 201.94
  Q 103.75 202.33 103.56 201.94
  L 32.44 54.36
  C 32.20 53.87 32.55 53.31 33.09 53.31
  Z
  M 103.56 163.17
  Q 102.58 160.50 101.33 157.93
  Q 78.12 110.06 55.03 62.14
  C 54.89 61.85 54.61 61.66 54.32 61.65
  L 45.51 61.53
  C 45.00 61.53 44.67 62.07 44.90 62.54
  L 103.36 183.52
  Q 104.05 184.95 104.74 183.52
  L 171.71 44.58
  C 171.84 44.31 171.64 44.00 171.34 44.00
  L 162.34 44.00
  C 161.79 44.00 161.29 44.31 161.05 44.81
  L 104.18 163.20
  Q 103.83 163.93 103.56 163.17
  Z
  M 320.17 154.01
  L 298.16 90.24
  C 298.06 89.95 297.79 89.75 297.48 89.75
  L 279.64 89.75
  C 279.36 89.75 279.17 90.03 279.26 90.29
  L 310.49 175.48
  C 310.60 175.79 310.90 176.00 311.23 176.00
  L 329.74 176.00
  C 330.12 176.00 330.47 175.76 330.60 175.40
  L 362.01 90.29
  C 362.10 90.06 361.93 89.81 361.69 89.81
  L 343.80 89.68
  C 343.49 89.68 343.21 89.87 343.11 90.16
  L 321.00 154.01
  Q 320.58 155.21 320.17 154.01
  Z
  M 404.80 159.69
  L 404.92 141.18
  C 404.92 140.91 405.15 140.69 405.43 140.68
  L 432.56 140.32
  C 432.85 140.31 433.09 140.09 433.09 139.81
  L 433.09 125.69
  C 433.09 125.41 432.86 125.19 432.57 125.18
  L 405.44 124.82
  C 405.15 124.81 404.92 124.59 404.92 124.31
  L 404.84 106.34
  C 404.83 105.77 405.30 105.31 405.88 105.31
  L 436.08 105.25
  C 436.44 105.25 436.74 104.96 436.73 104.61
  L 436.59 90.18
  C 436.58 89.91 436.35 89.69 436.06 89.69
  L 387.82 89.81
  C 387.37 89.81 387.00 90.18 387.00 90.63
  L 387.06 175.45
  C 387.06 175.72 387.28 175.94 387.56 175.94
  L 435.83 176.00
  C 436.44 176.00 436.94 175.48 436.93 174.85
  L 436.77 160.93
  C 436.76 160.55 436.47 160.25 436.10 160.25
  L 405.31 160.19
  C 405.03 160.19 404.80 159.97 404.80 159.69
  Z
  M 467.28 128.69
  Q 467.26 151.97 467.25 175.44
  C 467.25 175.75 467.50 176.00 467.81 176.00
  L 511.15 176.00
  C 511.62 176.00 512.00 175.62 512.00 175.15
  L 512.00 160.80
  C 512.00 160.50 511.75 160.25 511.44 160.25
  L 485.70 160.19
  C 485.31 160.19 485.00 159.87 485.00 159.48
  L 485.00 90.31
  C 485.00 90.00 484.75 89.75 484.43 89.74
  L 467.91 89.58
  C 467.55 89.57 467.25 89.86 467.25 90.21
  Q 467.30 109.72 467.28 128.69
  Z
  M 254.26 90.19
  C 254.26 89.95 254.07 89.76 253.83 89.76
  L 236.93 89.76
  C 236.69 89.76 236.50 89.95 236.50 90.19
  L 236.50 175.57
  C 236.50 175.81 236.69 176.00 236.93 176.00
  L 253.83 176.00
  C 254.07 176.00 254.26 175.81 254.26 175.57
  L 254.26 90.19
  Z"
/>
<path fill="#feb40e" d="
  M 33.09 53.31
  C 32.55 53.31 32.20 53.87 32.44 54.36
  L 103.56 201.94
  Q 103.75 202.33 103.94 201.94
  L 180.05 44.88
  C 180.31 44.35 180.84 44.01 181.42 44.01
  L 209.06 44.18
  C 209.30 44.18 209.45 44.43 209.35 44.64
  L 124.78 219.36
  C 124.64 219.65 124.36 219.84 124.06 219.85
  L 115.26 219.98
  C 114.90 219.98 114.67 219.60 114.83 219.27
  L 194.69 53.93
  C 194.84 53.62 194.62 53.25 194.27 53.25
  L 187.02 53.25
  C 186.60 53.25 186.21 53.49 186.03 53.87
  Q 146.60 135.47 107.18 217.16
  Q 106.16 219.26 105.19 219.80
  Q 103.77 220.60 101.89 219.78
  C 101.61 219.66 101.37 219.42 101.22 219.12
  L 17.67 45.26
  C 17.39 44.68 17.82 44.00 18.47 44.00
  L 65.32 44.00
  C 65.72 44.00 66.09 44.23 66.27 44.60
  L 108.33 131.86
  Q 109.10 133.47 108.35 134.95
  L 104.30 142.98
  Q 103.75 144.07 103.22 142.95
  L 60.45 53.93
  C 60.25 53.51 59.84 53.25 59.39 53.25
  L 33.09 53.31
  Z"
/>
<path fill="#feb40e" d="
  M 103.56 163.17
  Q 103.83 163.93 104.18 163.20
  L 161.05 44.81
  C 161.29 44.31 161.79 44.00 162.34 44.00
  L 171.34 44.00
  C 171.64 44.00 171.84 44.31 171.71 44.58
  L 104.74 183.52
  Q 104.05 184.95 103.36 183.52
  L 44.90 62.54
  C 44.67 62.07 45.00 61.53 45.51 61.53
  L 54.32 61.65
  C 54.61 61.66 54.89 61.85 55.03 62.14
  Q 78.12 110.06 101.33 157.93
  Q 102.58 160.50 103.56 163.17
  Z"
/>
<path fill="#293d7a" d="
  M 320.17 154.01
  Q 320.58 155.21 321.00 154.01
  L 343.11 90.16
  C 343.21 89.87 343.49 89.68 343.80 89.68
  L 361.69 89.81
  C 361.93 89.81 362.10 90.06 362.01 90.29
  L 330.60 175.40
  C 330.47 175.76 330.12 176.00 329.74 176.00
  L 311.23 176.00
  C 310.90 176.00 310.60 175.79 310.49 175.48
  L 279.26 90.29
  C 279.17 90.03 279.36 89.75 279.64 89.75
  L 297.48 89.75
  C 297.79 89.75 298.06 89.95 298.16 90.24
  L 320.17 154.01
  Z"
/>
<path fill="#293d7a" d="
  M 405.31 160.19
  L 436.10 160.25
  C 436.47 160.25 436.76 160.55 436.77 160.93
  L 436.93 174.85
  C 436.94 175.48 436.44 176.00 435.83 176.00
  L 387.56 175.94
  C 387.28 175.94 387.06 175.72 387.06 175.45
  L 387.00 90.63
  C 387.00 90.18 387.37 89.81 387.82 89.81
  L 436.06 89.69
  C 436.35 89.69 436.58 89.91 436.59 90.18
  L 436.73 104.61
  C 436.74 104.96 436.44 105.25 436.08 105.25
  L 405.88 105.31
  C 405.30 105.31 404.83 105.77 404.84 106.34
  L 404.92 124.31
  C 404.92 124.59 405.15 124.81 405.44 124.82
  L 432.57 125.18
  C 432.86 125.19 433.09 125.41 433.09 125.69
  L 433.09 139.81
  C 433.09 140.09 432.85 140.31 432.56 140.32
  L 405.43 140.68
  C 405.15 140.69 404.92 140.91 404.92 141.18
  L 404.80 159.69
  C 404.80 159.97 405.03 160.19 405.31 160.19
  Z"
/>
<path fill="#293d7a" d="
  M 467.28 128.69
  Q 467.30 109.72 467.25 90.21
  C 467.25 89.86 467.55 89.57 467.91 89.58
  L 484.43 89.74
  C 484.75 89.75 485.00 90.00 485.00 90.31
  L 485.00 159.48
  C 485.00 159.87 485.31 160.19 485.70 160.19
  L 511.44 160.25
  C 511.75 160.25 512.00 160.50 512.00 160.80
  L 512.00 175.15
  C 512.00 175.62 511.62 176.00 511.15 176.00
  L 467.81 176.00
  C 467.50 176.00 467.25 175.75 467.25 175.44
  Q 467.26 151.97 467.28 128.69
  Z"
/>
<rect fill="#293d7a" x="236.50" y="89.76" width="17.76" height="86.24" rx="0.43"/>
</svg>
